<?xml version="1.0" encoding="UTF-8"?><svg id="_레이어_1" xmlns="http://www.w3.org/2000/svg" viewBox="0 0 283.46 283.46"><defs><style>.comet2_svg_1{fill:#fff;}</style></defs><path class="comet2_svg_1" d="M231.38,71.47c-55.09,50.86-123.54,113.23-179.66,166.03C125.09,166.22,208.66,79.2,279.48,8.36l-.23-.23C205.05,81.9,123.7,160.28,49.45,236.63c47.14-49.61,95.02-103.56,140.44-152.52,0,0-.16-.15-.16-.15-46.72,50.07-97.77,103.2-144.9,155.06l-31.2,33.53c-.51,.55-.84,1.25-.88,2,0,0,0,.02,0,.03-.03,.46,.37,.82,.83,.75,.22-.03,.48-.1,.79-.21,.4-.15,.75-.39,1.05-.68l37.77-36.34c59.56-53.94,120.71-112.97,178.35-166.47,0,0-.15-.16-.15-.16Z"/></svg>