<?xml version="1.0" encoding="UTF-8"?><svg id="_레이어_1" xmlns="http://www.w3.org/2000/svg" viewBox="0 0 283.46 283.46"><defs><style>.comet1_svg_1{fill:#fff;}</style></defs><path class="comet1_svg_1" d="M56.46,71.47c55.09,50.86,123.54,113.23,179.66,166.03C162.75,166.22,79.18,79.2,8.37,8.36l.23-.23C82.79,81.9,164.14,160.28,238.39,236.63c-47.14-49.61-95.02-103.56-140.44-152.52,0,0,.16-.15,.16-.15,46.72,50.07,97.77,103.2,144.9,155.06l31.2,33.53c.51,.55,.84,1.25,.88,2,0,0,0,.02,0,.03,.03,.46-.37,.82-.83,.75-.22-.03-.48-.1-.79-.21-.4-.15-.75-.39-1.05-.68l-37.77-36.34c-59.56-53.94-120.71-112.97-178.35-166.47,0,0,.15-.16,.15-.16Z"/></svg>