<?xml version="1.0" encoding="UTF-8"?><svg id="_레이어_4" xmlns="http://www.w3.org/2000/svg" viewBox="0 0 311.8 311.8"><defs><style>.ymas_0-1{fill:#fff;}</style></defs><g><path class="ymas_0-1" d="M148.1,161.8c-1.9,0-3.8-1-4.9-2.8-1.5-2.7-.6-6.1,2.1-7.7l129.5-74.8c2.7-1.5,6.1-.6,7.7,2.1,1.5,2.7,.6,6.1-2.1,7.7l-129.5,74.8c-.9,.5-1.8,.8-2.8,.8Z"/><g><path class="ymas_0-1" d="M272.2,121.2c-.5,0-1,0-1.5-.2l-36.8-9.9c-3-.8-4.8-3.9-4-6.9,.8-3,3.9-4.8,6.9-4l36.8,9.9c3,.8,4.8,3.9,4,6.9-.7,2.5-2.9,4.2-5.4,4.2Z"/><path class="ymas_0-1" d="M235.4,111.3c-.5,0-1,0-1.5-.2-3-.8-4.8-3.9-4-6.9l9.9-36.8c.8-3,3.9-4.8,6.9-4,3,.8,4.8,3.9,4,6.9l-9.9,36.8c-.7,2.5-2.9,4.2-5.4,4.2Z"/><path class="ymas_0-1" d="M245.9,149.1c-.5,0-1,0-1.5-.2l-51.8-13.9c-3-.8-4.8-3.9-4-6.9s3.9-4.8,6.9-4l51.8,13.9c3,.8,4.8,3.9,4,6.9-.7,2.5-2.9,4.2-5.4,4.2Z"/><path class="ymas_0-1" d="M194.1,135.2c-.5,0-1,0-1.5-.2-3-.8-4.8-3.9-4-6.9l13.9-51.8c.8-3,3.9-4.8,6.9-4,3,.8,4.8,3.9,4,6.9l-13.9,51.8c-.7,2.5-2.9,4.2-5.4,4.2Z"/></g></g><g><path class="ymas_0-1" d="M277.6,236.5c-1,0-1.9-.2-2.8-.8l-129.5-74.8c-2.7-1.5-3.6-5-2.1-7.7,1.6-2.7,5-3.6,7.7-2.1l129.5,74.8c2.7,1.5,3.6,5,2.1,7.7-1,1.8-2.9,2.8-4.9,2.8Z"/><g><path class="ymas_0-1" d="M245.3,249c-2.5,0-4.7-1.7-5.4-4.2l-9.9-36.8c-.8-3,1-6.1,4-6.9,3-.8,6.1,1,6.9,4l9.9,36.8c.8,3-1,6.1-4,6.9-.5,.1-1,.2-1.5,.2Z"/><path class="ymas_0-1" d="M235.4,212.2c-2.5,0-4.7-1.7-5.4-4.2-.8-3,1-6.1,4-6.9l36.8-9.9c3-.8,6.1,1,6.9,4,.8,3-1,6.1-4,6.9l-36.8,9.9c-.5,.1-1,.2-1.5,.2Z"/><path class="ymas_0-1" d="M207.9,240.1c-2.5,0-4.7-1.7-5.4-4.2l-13.9-51.8c-.8-3,1-6.1,4-6.9,3-.8,6.1,1,6.9,4l13.9,51.8c.8,3-1,6.1-4,6.9-.5,.1-1,.2-1.5,.2Z"/><path class="ymas_0-1" d="M194.1,188.3c-2.5,0-4.7-1.7-5.4-4.2-.8-3,1-6.1,4-6.9l51.8-13.9c3-.8,6.1,1,6.9,4,.8,3-1,6.1-4,6.9l-51.8,13.9c-.5,.1-1,.2-1.5,.2Z"/></g></g><g><path class="ymas_0-1" d="M148.1,311.3c-3.1,0-5.6-2.5-5.6-5.6V156.1c0-3.1,2.5-5.6,5.6-5.6s5.6,2.5,5.6,5.6v149.5c0,3.1-2.5,5.6-5.6,5.6Z"/><g><path class="ymas_0-1" d="M121.1,289.6c-1.4,0-2.9-.5-4-1.6-2.2-2.2-2.2-5.7,0-7.9l27-27c2.2-2.2,5.7-2.2,7.9,0,2.2,2.2,2.2,5.7,0,7.9l-27,27c-1.1,1.1-2.5,1.6-4,1.6Z"/><path class="ymas_0-1" d="M175,289.6c-1.4,0-2.9-.5-4-1.6l-27-27c-2.2-2.2-2.2-5.7,0-7.9,2.2-2.2,5.7-2.2,7.9,0l27,27c2.2,2.2,2.2,5.7,0,7.9-1.1,1.1-2.5,1.6-4,1.6Z"/><path class="ymas_0-1" d="M110.1,252.8c-1.4,0-2.9-.5-4-1.6-2.2-2.2-2.2-5.7,0-7.9l37.9-37.9c2.2-2.2,5.7-2.2,7.9,0,2.2,2.2,2.2,5.7,0,7.9l-37.9,37.9c-1.1,1.1-2.5,1.6-4,1.6Z"/><path class="ymas_0-1" d="M186,252.8c-1.4,0-2.9-.5-4-1.6l-37.9-37.9c-2.2-2.2-2.2-5.7,0-7.9,2.2-2.2,5.7-2.2,7.9,0l37.9,37.9c2.2,2.2,2.2,5.7,0,7.9-1.1,1.1-2.5,1.6-4,1.6Z"/></g></g><g><path class="ymas_0-1" d="M18.6,236.5c-1.9,0-3.8-1-4.9-2.8-1.5-2.7-.6-6.1,2.1-7.7l129.5-74.8c2.7-1.5,6.1-.6,7.7,2.1,1.5,2.7,.6,6.1-2.1,7.7L21.4,235.8c-.9,.5-1.8,.8-2.8,.8Z"/><g><path class="ymas_0-1" d="M60.7,212.2c-.5,0-1,0-1.5-.2l-36.8-9.9c-3-.8-4.8-3.9-4-6.9s3.9-4.8,6.9-4l36.8,9.9c3,.8,4.8,3.9,4,6.9-.7,2.5-2.9,4.2-5.4,4.2Z"/><path class="ymas_0-1" d="M50.9,249c-.5,0-1,0-1.5-.2-3-.8-4.8-3.9-4-6.9l9.9-36.8c.8-3,3.9-4.8,6.9-4,3,.8,4.8,3.9,4,6.9l-9.9,36.8c-.7,2.5-2.9,4.2-5.4,4.2Z"/><path class="ymas_0-1" d="M102.1,188.3c-.5,0-1,0-1.5-.2l-51.8-13.9c-3-.8-4.8-3.9-4-6.9s3.9-4.8,6.9-4l51.8,13.9c3,.8,4.8,3.9,4,6.9-.7,2.5-2.9,4.2-5.4,4.2Z"/><path class="ymas_0-1" d="M88.2,240.1c-.5,0-1,0-1.5-.2-3-.8-4.8-3.9-4-6.9l13.9-51.8c.8-3,3.9-4.8,6.9-4,3,.8,4.8,3.9,4,6.9l-13.9,51.8c-.7,2.5-2.9,4.2-5.4,4.2Z"/></g></g><g><path class="ymas_0-1" d="M148.1,161.8c-1,0-1.9-.2-2.8-.8L15.8,86.2c-2.7-1.5-3.6-5-2.1-7.7,1.5-2.7,5-3.6,7.7-2.1l129.5,74.8c2.7,1.5,3.6,5,2.1,7.7-1,1.8-2.9,2.8-4.9,2.8Z"/><g><path class="ymas_0-1" d="M60.7,111.3c-2.5,0-4.7-1.7-5.4-4.2l-9.9-36.8c-.8-3,1-6.1,4-6.9,3-.8,6.1,1,6.9,4l9.9,36.8c.8,3-1,6.1-4,6.9-.5,.1-1,.2-1.5,.2Z"/><path class="ymas_0-1" d="M23.9,121.2c-2.5,0-4.7-1.7-5.4-4.2-.8-3,1-6.1,4-6.9l36.8-9.9c3-.8,6.1,1,6.9,4,.8,3-1,6.1-4,6.9l-36.8,9.9c-.5,.1-1,.2-1.5,.2Z"/><path class="ymas_0-1" d="M102.1,135.2c-2.5,0-4.7-1.7-5.4-4.2l-13.9-51.8c-.8-3,1-6.1,4-6.9,3-.8,6.1,1,6.9,4l13.9,51.8c.8,3-1,6.1-4,6.9-.5,.1-1,.2-1.5,.2Z"/><path class="ymas_0-1" d="M50.3,149.1c-2.5,0-4.7-1.7-5.4-4.2-.8-3,1-6.1,4-6.9l51.8-13.9c3-.8,6.1,1,6.9,4,.8,3-1,6.1-4,6.9l-51.8,13.9c-.5,.1-1,.2-1.5,.2Z"/></g></g><g><path class="ymas_0-1" d="M148.1,161.8c-3.1,0-5.6-2.5-5.6-5.6V6.6c0-3.1,2.5-5.6,5.6-5.6s5.6,2.5,5.6,5.6V156.1c0,3.1-2.5,5.6-5.6,5.6Z"/><g><path class="ymas_0-1" d="M148.1,60.9c-1.4,0-2.9-.5-4-1.6-2.2-2.2-2.2-5.7,0-7.9l27-27c2.2-2.2,5.7-2.2,7.9,0,2.2,2.2,2.2,5.7,0,7.9l-27,27c-1.1,1.1-2.5,1.6-4,1.6Z"/><path class="ymas_0-1" d="M148.1,60.9c-1.4,0-2.9-.5-4-1.6l-27-27c-2.2-2.2-2.2-5.7,0-7.9,2.2-2.2,5.7-2.2,7.9,0l27,27c2.2,2.2,2.2,5.7,0,7.9-1.1,1.1-2.5,1.6-4,1.6Z"/><path class="ymas_0-1" d="M148.1,108.7c-1.4,0-2.9-.5-4-1.6-2.2-2.2-2.2-5.7,0-7.9l37.9-37.9c2.2-2.2,5.7-2.2,7.9,0,2.2,2.2,2.2,5.7,0,7.9l-37.9,37.9c-1.1,1.1-2.5,1.6-4,1.6Z"/><path class="ymas_0-1" d="M148.1,108.7c-1.4,0-2.9-.5-4-1.6l-37.9-37.9c-2.2-2.2-2.2-5.7,0-7.9,2.2-2.2,5.7-2.2,7.9,0l37.9,37.9c2.2,2.2,2.2,5.7,0,7.9-1.1,1.1-2.5,1.6-4,1.6Z"/></g></g></svg>