<?xml version="1.0" encoding="UTF-8"?><svg id="_레이어_4" xmlns="http://www.w3.org/2000/svg" viewBox="0 0 311.8 311.8"><defs><style>.ymas_1-1{fill:#fff;}</style></defs><g><path class="ymas_1-1" d="M155.6,161.8c-3.1,0-5.6-2.5-5.6-5.6V6.6c0-3.1,2.5-5.6,5.6-5.6s5.6,2.5,5.6,5.6V156.1c0,3.1-2.5,5.6-5.6,5.6Z"/><g><path class="ymas_1-1" d="M155.6,49.8c-1.4,0-2.9-.5-4-1.6-2.2-2.2-2.2-5.7,0-7.9l15.8-15.8c2.2-2.2,5.7-2.2,7.9,0,2.2,2.2,2.2,5.7,0,7.9l-15.8,15.8c-1.1,1.1-2.5,1.6-4,1.6Z"/><path class="ymas_1-1" d="M155.6,49.8c-1.4,0-2.9-.5-4-1.6l-15.8-15.8c-2.2-2.2-2.2-5.7,0-7.9,2.2-2.2,5.7-2.2,7.9,0l15.8,15.8c2.2,2.2,2.2,5.7,0,7.9s-2.5,1.6-4,1.6Z"/><path class="ymas_1-1" d="M155.6,87c-1.4,0-2.9-.5-4-1.6-2.2-2.2-2.2-5.7,0-7.9l22.2-22.2c2.2-2.2,5.7-2.2,7.9,0,2.2,2.2,2.2,5.7,0,7.9l-22.2,22.2c-1.1,1.1-2.5,1.6-4,1.6Z"/><path class="ymas_1-1" d="M155.6,87c-1.4,0-2.9-.5-4-1.6l-22.2-22.2c-2.2-2.2-2.2-5.7,0-7.9,2.2-2.2,5.7-2.2,7.9,0l22.2,22.2c2.2,2.2,2.2,5.7,0,7.9-1.1,1.1-2.5,1.6-4,1.6Z"/></g></g><g><path class="ymas_1-1" d="M155.6,161.8c-1.9,0-3.8-1-4.9-2.8-1.5-2.7-.6-6.1,2.1-7.7l129.5-74.8c2.7-1.5,6.1-.6,7.7,2.1,1.5,2.7,.6,6.1-2.1,7.7l-129.5,74.8c-.9,.5-1.8,.8-2.8,.8Z"/><path class="ymas_1-1" d="M274.1,111.6c-.5,0-1,0-1.5-.2l-21.6-5.8c-3-.8-4.8-3.9-4-6.9,.8-3,3.9-4.8,6.9-4l21.6,5.8c3,.8,4.8,3.9,4,6.9-.7,2.5-2.9,4.2-5.4,4.2Z"/><path class="ymas_1-1" d="M252.5,105.8c-.5,0-1,0-1.5-.2-3-.8-4.8-3.9-4-6.9l5.8-21.6c.8-3,3.9-4.8,6.9-4,3,.8,4.8,3.9,4,6.9l-5.8,21.6c-.7,2.5-2.9,4.2-5.4,4.2Z"/><path class="ymas_1-1" d="M250.7,132.5c-.5,0-1,0-1.5-.2l-30.4-8.1c-3-.8-4.8-3.9-4-6.9s3.9-4.8,6.9-4l30.4,8.1c3,.8,4.8,3.9,4,6.9-.7,2.5-2.9,4.2-5.4,4.2Z"/><path class="ymas_1-1" d="M220.3,124.4c-.5,0-1,0-1.5-.2-3-.8-4.8-3.9-4-6.9l8.1-30.4c.8-3,3.9-4.8,6.9-4,3,.8,4.8,3.9,4,6.9l-8.1,30.4c-.7,2.5-2.9,4.2-5.4,4.2Z"/></g><g><path class="ymas_1-1" d="M285.1,236.5c-1,0-1.9-.2-2.8-.8l-129.5-74.8c-2.7-1.5-3.6-5-2.1-7.7,1.6-2.7,5-3.6,7.7-2.1l129.5,74.8c2.7,1.5,3.6,5,2.1,7.7-1,1.8-2.9,2.8-4.9,2.8Z"/><path class="ymas_1-1" d="M258.3,239.3c-2.5,0-4.7-1.7-5.4-4.2l-5.8-21.6c-.8-3,1-6.1,4-6.9,3-.8,6.1,1,6.9,4l5.8,21.6c.8,3-1,6.1-4,6.9-.5,.1-1,.2-1.5,.2Z"/><path class="ymas_1-1" d="M252.5,217.8c-2.5,0-4.7-1.7-5.4-4.2-.8-3,1-6.1,4-6.9l21.6-5.8c3-.8,6.1,1,6.9,4,.8,3-1,6.1-4,6.9l-21.6,5.8c-.5,.1-1,.2-1.5,.2Z"/><path class="ymas_1-1" d="M228.5,229.5c-2.5,0-4.7-1.7-5.4-4.2l-8.1-30.4c-.8-3,1-6.1,4-6.9,3-.8,6.1,1,6.9,4l8.1,30.4c.8,3-1,6.1-4,6.9-.5,.1-1,.2-1.5,.2Z"/><path class="ymas_1-1" d="M220.3,199.1c-2.5,0-4.7-1.7-5.4-4.2-.8-3,1-6.1,4-6.9l30.4-8.1c3-.8,6.1,1,6.9,4s-1,6.1-4,6.9l-30.4,8.1c-.5,.1-1,.2-1.5,.2Z"/></g><g><path class="ymas_1-1" d="M155.6,311.3c-3.1,0-5.6-2.5-5.6-5.6V156.1c0-3.1,2.5-5.6,5.6-5.6s5.6,2.5,5.6,5.6v149.5c0,3.1-2.5,5.6-5.6,5.6Z"/><path class="ymas_1-1" d="M139.7,289.6c-1.4,0-2.9-.5-4-1.6-2.2-2.2-2.2-5.7,0-7.9l15.8-15.8c2.2-2.2,5.7-2.2,7.9,0,2.2,2.2,2.2,5.7,0,7.9l-15.8,15.8c-1.1,1.1-2.5,1.6-4,1.6Z"/><path class="ymas_1-1" d="M171.4,289.6c-1.4,0-2.9-.5-4-1.6l-15.8-15.8c-2.2-2.2-2.2-5.7,0-7.9,2.2-2.2,5.7-2.2,7.9,0l15.8,15.8c2.2,2.2,2.2,5.7,0,7.9-1.1,1.1-2.5,1.6-4,1.6Z"/><path class="ymas_1-1" d="M133.3,258.8c-1.4,0-2.9-.5-4-1.6-2.2-2.2-2.2-5.7,0-7.9l22.2-22.2c2.2-2.2,5.7-2.2,7.9,0,2.2,2.2,2.2,5.7,0,7.9l-22.2,22.2c-1.1,1.1-2.5,1.6-4,1.6Z"/><path class="ymas_1-1" d="M177.8,258.8c-1.4,0-2.9-.5-4-1.6l-22.2-22.2c-2.2-2.2-2.2-5.7,0-7.9,2.2-2.2,5.7-2.2,7.9,0l22.2,22.2c2.2,2.2,2.2,5.7,0,7.9-1.1,1.1-2.5,1.6-4,1.6Z"/></g><g><path class="ymas_1-1" d="M26.1,236.5c-1.9,0-3.8-1-4.9-2.8-1.5-2.7-.6-6.1,2.1-7.7l129.5-74.8c2.7-1.5,6.1-.6,7.7,2.1,1.5,2.7,.6,6.1-2.1,7.7L28.9,235.8c-.9,.5-1.8,.8-2.8,.8Z"/><path class="ymas_1-1" d="M58.6,217.8c-.5,0-1,0-1.5-.2l-21.6-5.8c-3-.8-4.8-3.9-4-6.9,.8-3,3.9-4.8,6.9-4l21.6,5.8c3,.8,4.8,3.9,4,6.9-.7,2.5-2.9,4.2-5.4,4.2Z"/><path class="ymas_1-1" d="M52.8,239.3c-.5,0-1,0-1.5-.2-3-.8-4.8-3.9-4-6.9l5.8-21.6c.8-3,3.9-4.8,6.9-4,3,.8,4.8,3.9,4,6.9l-5.8,21.6c-.7,2.5-2.9,4.2-5.4,4.2Z"/><path class="ymas_1-1" d="M90.8,199.1c-.5,0-1,0-1.5-.2l-30.4-8.1c-3-.8-4.8-3.9-4-6.9,.8-3,3.9-4.8,6.9-4l30.4,8.1c3,.8,4.8,3.9,4,6.9-.7,2.5-2.9,4.2-5.4,4.2Z"/><path class="ymas_1-1" d="M82.7,229.5c-.5,0-1,0-1.5-.2-3-.8-4.8-3.9-4-6.9l8.1-30.4c.8-3,3.9-4.8,6.9-4,3,.8,4.8,3.9,4,6.9l-8.1,30.4c-.7,2.5-2.9,4.2-5.4,4.2Z"/></g><g><path class="ymas_1-1" d="M155.6,161.8c-1,0-1.9-.2-2.8-.8L23.2,86.2c-2.7-1.5-3.6-5-2.1-7.7,1.6-2.7,5-3.6,7.7-2.1l129.5,74.8c2.7,1.5,3.6,5,2.1,7.7-1,1.8-2.9,2.8-4.9,2.8Z"/><path class="ymas_1-1" d="M58.6,105.8c-2.5,0-4.7-1.7-5.4-4.2l-5.8-21.6c-.8-3,1-6.1,4-6.9,3-.8,6.1,1,6.9,4l5.8,21.6c.8,3-1,6.1-4,6.9-.5,.1-1,.2-1.5,.2Z"/><path class="ymas_1-1" d="M37,111.6c-2.5,0-4.7-1.7-5.4-4.2-.8-3,1-6.1,4-6.9l21.6-5.8c3-.8,6.1,1,6.9,4,.8,3-1,6.1-4,6.9l-21.6,5.8c-.5,.1-1,.2-1.5,.2Z"/><path class="ymas_1-1" d="M90.8,124.4c-2.5,0-4.7-1.7-5.4-4.2l-8.1-30.4c-.8-3,1-6.1,4-6.9,3-.8,6.1,1,6.9,4l8.1,30.4c.8,3-1,6.1-4,6.9-.5,.1-1,.2-1.5,.2Z"/><path class="ymas_1-1" d="M60.4,132.5c-2.5,0-4.7-1.7-5.4-4.2-.8-3,1-6.1,4-6.9l30.4-8.1c3-.8,6.1,1,6.9,4,.8,3-1,6.1-4,6.9l-30.4,8.1c-.5,.1-1,.2-1.5,.2Z"/></g><path class="ymas_1-1" d="M114,234.4c-1,0-1.9-.2-2.8-.7-1.9-1.1-3-3.2-2.8-5.5l5-47.5-43.7-19.1c-2-.9-3.4-2.9-3.4-5.1,0-2.2,1.3-4.2,3.3-5.1l43.6-19.4-5.3-47.4c-.2-2.2,.8-4.4,2.8-5.5,1.9-1.1,4.3-1,6.1,.3l38.6,28,38.4-28.3c1.8-1.3,4.2-1.5,6.1-.4,1.9,1.1,3,3.2,2.8,5.5l-5,47.5,43.7,19.1c2,.9,3.4,2.9,3.4,5.1s-1.3,4.2-3.3,5.1l-43.6,19.4,5.3,47.4c.2,2.2-.8,4.4-2.8,5.5-1.9,1.1-4.3,1-6.1-.3l-38.6-28-38.4,28.3c-1,.7-2.2,1.1-3.3,1.1Zm-28.2-77.9l35.8,15.6c2.2,1,3.6,3.3,3.3,5.7l-4.1,38.9,31.5-23.2c2-1.5,4.7-1.5,6.6,0l31.6,23-4.4-38.9c-.3-2.4,1.1-4.8,3.3-5.8l35.7-15.9-35.8-15.6c-2.2-1-3.6-3.3-3.3-5.7l4.1-38.9-31.5,23.2c-2,1.5-4.7,1.5-6.6,0l-31.6-23,4.4,38.9c.3,2.4-1.1,4.8-3.3,5.8l-35.7,15.9Z"/></svg>