<?xml version="1.0" encoding="UTF-8"?><svg id="_레이어_5" xmlns="http://www.w3.org/2000/svg" viewBox="0 0 311.8 311.8"><defs><style>.ymas_5-1{fill:#fff;}.cls-2{fill:#0b0b0c;}</style></defs><g><path class="ymas_5-1" d="M153.3,162.8c-3.1,0-5.7-2.5-5.7-5.7V5.9c0-3.1,2.5-5.7,5.7-5.7s5.7,2.5,5.7,5.7V157.1c0,3.1-2.5,5.7-5.7,5.7Z"/><g><path class="ymas_5-1" d="M153.3,66.1c-6.6,0-12.7-2.6-17.4-7.2l-13.9-13.9c-2.2-2.2-2.2-5.8,0-8,2.2-2.2,5.8-2.2,8,0l13.9,13.9c2.5,2.5,5.8,3.9,9.4,3.9s6.9-1.4,9.4-3.9l13.9-13.9c2.2-2.2,5.8-2.2,8,0,2.2,2.2,2.2,5.8,0,8l-13.9,13.9c-4.6,4.6-10.8,7.2-17.4,7.2Z"/><path class="ymas_5-1" d="M153.3,34.8c-4.8,0-9.4-1.9-12.8-5.4l-9.1-9.2c-2.2-2.2-2.2-5.8,0-8,2.2-2.2,5.8-2.2,8,0l9.1,9.2c1.3,1.3,2.9,2,4.7,2s3.4-.7,4.7-2l9.1-9.2c2.2-2.2,5.8-2.3,8,0,2.2,2.2,2.3,5.8,0,8l-9.1,9.2c-3.4,3.5-8,5.4-12.8,5.4Z"/><path class="ymas_5-1" d="M153.3,102.6c-6.3,0-12.6-2.4-17.4-7.2l-25-25c-2.2-2.2-2.2-5.8,0-8,2.2-2.2,5.8-2.2,8,0l25,25c5.2,5.2,13.6,5.2,18.7,0l25-25c2.2-2.2,5.8-2.2,8,0,2.2,2.2,2.2,5.8,0,8l-25,25c-4.8,4.8-11.1,7.2-17.4,7.2Z"/></g></g><g><path class="ymas_5-1" d="M153.3,162.8c-3.1,0-5.7-2.5-5.7-5.7V5.9c0-3.1,2.5-5.7,5.7-5.7s5.7,2.5,5.7,5.7V157.1c0,3.1-2.5,5.7-5.7,5.7Z"/><g><path class="ymas_5-1" d="M153.3,66.1c-6.6,0-12.7-2.6-17.4-7.2l-13.9-13.9c-2.2-2.2-2.2-5.8,0-8,2.2-2.2,5.8-2.2,8,0l13.9,13.9c2.5,2.5,5.8,3.9,9.4,3.9s6.9-1.4,9.4-3.9l13.9-13.9c2.2-2.2,5.8-2.2,8,0,2.2,2.2,2.2,5.8,0,8l-13.9,13.9c-4.6,4.6-10.8,7.2-17.4,7.2Z"/><path class="ymas_5-1" d="M153.3,34.8c-4.8,0-9.4-1.9-12.8-5.4l-9.1-9.2c-2.2-2.2-2.2-5.8,0-8,2.2-2.2,5.8-2.2,8,0l9.1,9.2c1.3,1.3,2.9,2,4.7,2s3.4-.7,4.7-2l9.1-9.2c2.2-2.2,5.8-2.3,8,0,2.2,2.2,2.3,5.8,0,8l-9.1,9.2c-3.4,3.5-8,5.4-12.8,5.4Z"/><path class="ymas_5-1" d="M153.3,102.6c-6.3,0-12.6-2.4-17.4-7.2l-25-25c-2.2-2.2-2.2-5.8,0-8,2.2-2.2,5.8-2.2,8,0l25,25c5.2,5.2,13.6,5.2,18.7,0l25-25c2.2-2.2,5.8-2.2,8,0,2.2,2.2,2.2,5.8,0,8l-25,25c-4.8,4.8-11.1,7.2-17.4,7.2Z"/></g></g><g><path class="ymas_5-1" d="M152.1,162.1c-2,0-3.9-1-4.9-2.8-1.6-2.7-.6-6.2,2.1-7.7l130.9-75.6c2.7-1.6,6.2-.6,7.7,2.1,1.6,2.7,.6,6.2-2.1,7.7l-130.9,75.6c-.9,.5-1.9,.8-2.8,.8Z"/><g><path class="ymas_5-1" d="M266.3,127.6c-.5,0-1,0-1.5-.2l-19-5.1c-6.3-1.7-11.6-5.8-14.9-11.5s-4.2-12.3-2.5-18.7l5.1-19c.8-3,3.9-4.8,6.9-4,3,.8,4.8,3.9,4,6.9l-5.1,19c-.9,3.4-.4,7,1.3,10.1s4.6,5.3,8,6.2l19,5.1c3,.8,4.8,3.9,4,6.9-.7,2.5-3,4.2-5.5,4.2Z"/><path class="ymas_5-1" d="M283.1,107c-.5,0-.9,0-1.4-.2l-12.5-3.2c-4.7-1.2-8.6-4.2-11.1-8.4-2.4-4.2-3-9.1-1.7-13.8l3.5-12.5c.8-3,4-4.8,7-4,3,.8,4.8,4,4,7l-3.5,12.5c-.5,1.7-.3,3.5,.6,5.1,.9,1.5,2.3,2.6,4.1,3.1l12.5,3.2c3,.8,4.9,3.9,4.1,6.9-.7,2.6-3,4.3-5.5,4.3Z"/><path class="ymas_5-1" d="M249.8,150c-.5,0-1,0-1.5-.2l-34.1-9.1c-6.3-1.7-11.6-5.8-14.9-11.5s-4.2-12.3-2.5-18.7l9.1-34.1c.8-3,3.9-4.8,6.9-4,3,.8,4.8,3.9,4,6.9l-9.1,34.1c-.9,3.4-.4,7,1.3,10.1s4.6,5.3,8,6.2l34.1,9.1c3,.8,4.8,3.9,4,6.9-.7,2.5-3,4.2-5.5,4.2Z"/></g></g><g><path class="ymas_5-1" d="M152.1,162.1c-2,0-3.9-1-4.9-2.8-1.6-2.7-.6-6.2,2.1-7.7l130.9-75.6c2.7-1.6,6.2-.6,7.7,2.1,1.6,2.7,.6,6.2-2.1,7.7l-130.9,75.6c-.9,.5-1.9,.8-2.8,.8Z"/><g><path class="ymas_5-1" d="M266.3,127.6c-.5,0-1,0-1.5-.2l-19-5.1c-6.3-1.7-11.6-5.8-14.9-11.5s-4.2-12.3-2.5-18.7l5.1-19c.8-3,3.9-4.8,6.9-4,3,.8,4.8,3.9,4,6.9l-5.1,19c-.9,3.4-.4,7,1.3,10.1s4.6,5.3,8,6.2l19,5.1c3,.8,4.8,3.9,4,6.9-.7,2.5-3,4.2-5.5,4.2Z"/><path class="ymas_5-1" d="M283.1,107c-.5,0-.9,0-1.4-.2l-12.5-3.2c-4.7-1.2-8.6-4.2-11.1-8.4-2.4-4.2-3-9.1-1.7-13.8l3.5-12.5c.8-3,4-4.8,7-4,3,.8,4.8,4,4,7l-3.5,12.5c-.5,1.7-.3,3.5,.6,5.1,.9,1.5,2.3,2.6,4.1,3.1l12.5,3.2c3,.8,4.9,3.9,4.1,6.9-.7,2.6-3,4.3-5.5,4.3Z"/><path class="ymas_5-1" d="M249.8,150c-.5,0-1,0-1.5-.2l-34.1-9.1c-6.3-1.7-11.6-5.8-14.9-11.5s-4.2-12.3-2.5-18.7l9.1-34.1c.8-3,3.9-4.8,6.9-4,3,.8,4.8,3.9,4,6.9l-9.1,34.1c-.9,3.4-.4,7,1.3,10.1s4.6,5.3,8,6.2l34.1,9.1c3,.8,4.8,3.9,4,6.9-.7,2.5-3,4.2-5.5,4.2Z"/></g></g><g><path class="ymas_5-1" d="M283,236.3c-1,0-1.9-.2-2.8-.8l-130.9-75.6c-2.7-1.6-3.6-5-2.1-7.7,1.6-2.7,5-3.6,7.7-2.1l130.9,75.6c2.7,1.6,3.6,5,2.1,7.7-1.1,1.8-3,2.8-4.9,2.8Z"/><g><path class="ymas_5-1" d="M239,242.3c-2.5,0-4.8-1.7-5.5-4.2l-5.1-19c-1.7-6.3-.8-13,2.5-18.7s8.6-9.8,14.9-11.5l19-5.1c3-.8,6.1,1,6.9,4,.8,3-1,6.1-4,6.9l-19,5.1c-7.1,1.9-11.3,9.2-9.4,16.2l5.1,19c.8,3-1,6.1-4,6.9-.5,.1-1,.2-1.5,.2Z"/><path class="ymas_5-1" d="M265.3,246.6c-2.5,0-4.8-1.6-5.5-4.2l-3.5-12.5c-1.3-4.7-.7-9.6,1.7-13.8,2.4-4.2,6.3-7.2,11.1-8.4l12.5-3.2c3-.8,6.1,1,6.9,4.1,.8,3-1,6.1-4.1,6.9l-12.5,3.2c-1.7,.5-3.2,1.5-4.1,3.1-.9,1.5-1.1,3.3-.6,5.1l3.5,12.5c.8,3-.9,6.1-4,7-.5,.1-1,.2-1.5,.2Z"/><path class="ymas_5-1" d="M211.4,239.2c-2.5,0-4.8-1.7-5.5-4.2l-9.1-34.1c-3.5-13.1,4.3-26.6,17.4-30.1l34.1-9.1c3-.8,6.1,1,6.9,4,.8,3-1,6.1-4,6.9l-34.1,9.1c-7.1,1.9-11.3,9.2-9.4,16.2l9.1,34.1c.8,3-1,6.1-4,6.9-.5,.1-1,.2-1.5,.2Z"/></g></g><g><path class="ymas_5-1" d="M283,236.3c-1,0-1.9-.2-2.8-.8l-130.9-75.6c-2.7-1.6-3.6-5-2.1-7.7,1.6-2.7,5-3.6,7.7-2.1l130.9,75.6c2.7,1.6,3.6,5,2.1,7.7-1.1,1.8-3,2.8-4.9,2.8Z"/><g><path class="ymas_5-1" d="M239,242.3c-2.5,0-4.8-1.7-5.5-4.2l-5.1-19c-1.7-6.3-.8-13,2.5-18.7s8.6-9.8,14.9-11.5l19-5.1c3-.8,6.1,1,6.9,4,.8,3-1,6.1-4,6.9l-19,5.1c-7.1,1.9-11.3,9.2-9.4,16.2l5.1,19c.8,3-1,6.1-4,6.9-.5,.1-1,.2-1.5,.2Z"/><path class="ymas_5-1" d="M265.3,246.6c-2.5,0-4.8-1.6-5.5-4.2l-3.5-12.5c-1.3-4.7-.7-9.6,1.7-13.8,2.4-4.2,6.3-7.2,11.1-8.4l12.5-3.2c3-.8,6.1,1,6.9,4.1,.8,3-1,6.1-4.1,6.9l-12.5,3.2c-1.7,.5-3.2,1.5-4.1,3.1-.9,1.5-1.1,3.3-.6,5.1l3.5,12.5c.8,3-.9,6.1-4,7-.5,.1-1,.2-1.5,.2Z"/><path class="ymas_5-1" d="M211.4,239.2c-2.5,0-4.8-1.7-5.5-4.2l-9.1-34.1c-3.5-13.1,4.3-26.6,17.4-30.1l34.1-9.1c3-.8,6.1,1,6.9,4,.8,3-1,6.1-4,6.9l-34.1,9.1c-7.1,1.9-11.3,9.2-9.4,16.2l9.1,34.1c.8,3-1,6.1-4,6.9-.5,.1-1,.2-1.5,.2Z"/></g></g><g><path class="ymas_5-1" d="M153.3,311.1c-3.1,0-5.7-2.5-5.7-5.7V154.3c0-3.1,2.5-5.7,5.7-5.7s5.7,2.5,5.7,5.7v151.2c0,3.1-2.5,5.7-5.7,5.7Z"/><g><path class="ymas_5-1" d="M126.1,276.1c-1.5,0-2.9-.6-4-1.7-2.2-2.2-2.2-5.8,0-8l13.9-13.9c4.6-4.6,10.8-7.2,17.4-7.2s12.7,2.6,17.4,7.2l13.9,13.9c2.2,2.2,2.2,5.8,0,8-2.2,2.2-5.8,2.2-8,0l-13.9-13.9c-2.5-2.5-5.8-3.9-9.4-3.9s-6.9,1.4-9.4,3.9l-13.9,13.9c-1.1,1.1-2.6,1.7-4,1.7Z"/><path class="ymas_5-1" d="M171.2,300.9c-1.5,0-2.9-.6-4-1.7l-9.1-9.2c-1.3-1.3-2.9-2-4.7-2s-3.4,.7-4.7,2l-9.1,9.2c-2.2,2.2-5.8,2.3-8,0-2.2-2.2-2.3-5.8,0-8l9.1-9.2c3.4-3.5,8-5.4,12.8-5.4s9.4,1.9,12.8,5.4l9.1,9.2c2.2,2.2,2.2,5.8,0,8-1.1,1.1-2.5,1.6-4,1.6Z"/><path class="ymas_5-1" d="M191.7,250.6c-1.5,0-2.9-.6-4-1.7l-25-25c-2.5-2.5-5.8-3.9-9.4-3.9s-6.9,1.4-9.4,3.9l-25,25c-2.2,2.2-5.8,2.2-8,0-2.2-2.2-2.2-5.8,0-8l25-25c4.6-4.6,10.8-7.2,17.4-7.2s12.7,2.6,17.4,7.2l25,25c2.2,2.2,2.2,5.8,0,8-1.1,1.1-2.6,1.7-4,1.7Z"/></g></g><g><path class="ymas_5-1" d="M23.6,236.3c-2,0-3.9-1-4.9-2.8-1.6-2.7-.6-6.2,2.1-7.7l130.9-75.6c2.7-1.6,6.2-.6,7.7,2.1,1.6,2.7,.6,6.2-2.1,7.7L26.5,235.5c-.9,.5-1.9,.8-2.8,.8Z"/><g><path class="ymas_5-1" d="M67.7,242.3c-.5,0-1,0-1.5-.2-3-.8-4.8-3.9-4-6.9l5.1-19c1.9-7.1-2.3-14.3-9.4-16.2l-19-5.1c-3-.8-4.8-3.9-4-6.9,.8-3,3.9-4.8,6.9-4l19,5.1c6.3,1.7,11.6,5.8,14.9,11.5s4.2,12.3,2.5,18.7l-5.1,19c-.7,2.5-3,4.2-5.5,4.2Z"/><path class="ymas_5-1" d="M41.4,246.6c-.5,0-1,0-1.5-.2-3-.8-4.8-4-4-7l3.5-12.5c.5-1.7,.3-3.5-.6-5.1-.9-1.5-2.3-2.6-4.1-3.1l-12.5-3.2c-3-.8-4.9-3.9-4.1-6.9,.8-3,3.9-4.9,6.9-4.1l12.5,3.2c4.7,1.2,8.6,4.2,11.1,8.4,2.4,4.2,3,9.1,1.7,13.8l-3.5,12.5c-.7,2.5-3,4.2-5.5,4.2Z"/><path class="ymas_5-1" d="M95.3,239.2c-.5,0-1,0-1.5-.2-3-.8-4.8-3.9-4-6.9l9.1-34.1c.9-3.4,.4-7-1.3-10.1s-4.6-5.3-8-6.2l-34.1-9.1c-3-.8-4.8-3.9-4-6.9,.8-3,3.9-4.8,6.9-4l34.1,9.1c6.3,1.7,11.6,5.8,14.9,11.5,3.3,5.7,4.2,12.3,2.5,18.7l-9.1,34.1c-.7,2.5-3,4.2-5.5,4.2Z"/></g></g><g><path class="ymas_5-1" d="M154.6,162.1c-1,0-1.9-.2-2.8-.8L20.8,85.7c-2.7-1.6-3.6-5-2.1-7.7,1.6-2.7,5-3.6,7.7-2.1l130.9,75.6c2.7,1.6,3.6,5,2.1,7.7-1.1,1.8-3,2.8-4.9,2.8Z"/><g><path class="ymas_5-1" d="M40.4,127.6c-2.5,0-4.8-1.7-5.5-4.2-.8-3,1-6.1,4-6.9l19-5.1c3.4-.9,6.3-3.1,8-6.2s2.2-6.6,1.3-10.1l-5.1-19c-.8-3,1-6.1,4-6.9,3-.8,6.1,1,6.9,4l5.1,19c1.7,6.3,.8,13-2.5,18.7s-8.6,9.8-14.9,11.5l-19,5.1c-.5,.1-1,.2-1.5,.2Z"/><path class="ymas_5-1" d="M23.6,107c-2.5,0-4.8-1.7-5.5-4.3-.8-3,1-6.1,4.1-6.9l12.5-3.2c1.7-.5,3.2-1.5,4.1-3.1,.9-1.5,1.1-3.3,.6-5.1l-3.5-12.5c-.8-3,.9-6.1,4-7,3-.8,6.1,.9,7,4l3.5,12.5c1.3,4.7,.7,9.6-1.7,13.8-2.4,4.2-6.3,7.2-11.1,8.4l-12.5,3.2c-.5,.1-1,.2-1.4,.2Z"/><path class="ymas_5-1" d="M56.9,150c-2.5,0-4.8-1.7-5.5-4.2-.8-3,1-6.1,4-6.9l34.1-9.1c3.4-.9,6.3-3.1,8-6.2,1.8-3.1,2.2-6.6,1.3-10.1l-9.1-34.1c-.8-3,1-6.1,4-6.9,3-.8,6.1,1,6.9,4l9.1,34.1c1.7,6.3,.8,13-2.5,18.7-3.3,5.7-8.6,9.8-14.9,11.5l-34.1,9.1c-.5,.1-1,.2-1.5,.2Z"/></g></g><path class="ymas_5-1" d="M153.3,162.8c-1,0-1.9-.2-2.8-.8-2.7-1.6-3.6-5-2.1-7.7l23-39.8c1.6-2.7,5-3.6,7.7-2.1,2.7,1.6,3.6,5,2.1,7.7l-23,39.8c-1.1,1.8-3,2.8-4.9,2.8Z"/><path class="ymas_5-1" d="M199.3,162.8h-46c-3.1,0-5.7-2.5-5.7-5.7s2.5-5.7,5.7-5.7h46c3.1,0,5.7,2.5,5.7,5.7s-2.5,5.7-5.7,5.7Z"/><path class="ymas_5-1" d="M176.3,202.6c-2,0-3.9-1-4.9-2.8l-23-39.8c-1.6-2.7-.6-6.2,2.1-7.7s6.2-.6,7.7,2.1l23,39.8c1.6,2.7,.6,6.2-2.1,7.7-.9,.5-1.9,.8-2.8,.8Z"/><path class="ymas_5-1" d="M130.4,202.6c-1,0-1.9-.2-2.8-.8-2.7-1.6-3.6-5-2.1-7.7l23-39.8c1.6-2.7,5-3.6,7.7-2.1,2.7,1.6,3.6,5,2.1,7.7l-23,39.8c-1.1,1.8-3,2.8-4.9,2.8Z"/><path class="ymas_5-1" d="M153.3,162.8h-46c-3.1,0-5.7-2.5-5.7-5.7s2.5-5.7,5.7-5.7h46c3.1,0,5.7,2.5,5.7,5.7s-2.5,5.7-5.7,5.7Z"/><path class="ymas_5-1" d="M153.4,162.8c-2,0-3.9-1-4.9-2.8l-23-39.8c-1.6-2.7-.6-6.2,2.1-7.7,2.7-1.6,6.2-.6,7.7,2.1l23,39.8c1.6,2.7,.6,6.2-2.1,7.7-.9,.5-1.9,.8-2.8,.8Z"/><circle class="cls-2" cx="153.3" cy="157.1" r="8.5"/></svg>