<?xml version="1.0" encoding="UTF-8"?><svg id="_레이어_4" xmlns="http://www.w3.org/2000/svg" viewBox="0 0 311.8 311.8"><defs><style>.ymas_2-1{fill:#fff;}.cls-2{fill:#0b0b0c;}</style></defs><g><path class="ymas_2-1" d="M156.1,161.8c-3.1,0-5.6-2.5-5.6-5.6V6.6c0-3.1,2.5-5.6,5.6-5.6s5.6,2.5,5.6,5.6V156.1c0,3.1-2.5,5.6-5.6,5.6Z"/><g><path class="ymas_2-1" d="M156.1,49.8c-1.4,0-2.9-.5-4-1.6-2.2-2.2-2.2-5.7,0-7.9l15.8-15.8c2.2-2.2,5.7-2.2,7.9,0,2.2,2.2,2.2,5.7,0,7.9l-15.8,15.8c-1.1,1.1-2.5,1.6-4,1.6Z"/><path class="ymas_2-1" d="M156.1,49.8c-1.4,0-2.9-.5-4-1.6l-15.8-15.8c-2.2-2.2-2.2-5.7,0-7.9,2.2-2.2,5.7-2.2,7.9,0l15.8,15.8c2.2,2.2,2.2,5.7,0,7.9-1.1,1.1-2.5,1.6-4,1.6Z"/><path class="ymas_2-1" d="M156.1,87c-1.4,0-2.9-.5-4-1.6-2.2-2.2-2.2-5.7,0-7.9l22.2-22.2c2.2-2.2,5.7-2.2,7.9,0,2.2,2.2,2.2,5.7,0,7.9l-22.2,22.2c-1.1,1.1-2.5,1.6-4,1.6Z"/><path class="ymas_2-1" d="M156.1,87c-1.4,0-2.9-.5-4-1.6l-22.2-22.2c-2.2-2.2-2.2-5.7,0-7.9,2.2-2.2,5.7-2.2,7.9,0l22.2,22.2c2.2,2.2,2.2,5.7,0,7.9-1.1,1.1-2.5,1.6-4,1.6Z"/></g></g><g><path class="ymas_2-1" d="M156.1,161.8c-1.9,0-3.8-1-4.9-2.8-1.5-2.7-.6-6.1,2.1-7.7l129.5-74.8c2.7-1.5,6.1-.6,7.7,2.1,1.5,2.7,.6,6.1-2.1,7.7l-129.5,74.8c-.9,.5-1.8,.8-2.8,.8Z"/><path class="ymas_2-1" d="M274.7,111.6c-.5,0-1,0-1.5-.2l-21.6-5.8c-3-.8-4.8-3.9-4-6.9,.8-3,3.9-4.8,6.9-4l21.6,5.8c3,.8,4.8,3.9,4,6.9-.7,2.5-2.9,4.2-5.4,4.2Z"/><path class="ymas_2-1" d="M253.1,105.8c-.5,0-1,0-1.5-.2-3-.8-4.8-3.9-4-6.9l5.8-21.6c.8-3,3.9-4.8,6.9-4,3,.8,4.8,3.9,4,6.9l-5.8,21.6c-.7,2.5-2.9,4.2-5.4,4.2Z"/><path class="ymas_2-1" d="M251.3,132.5c-.5,0-1,0-1.5-.2l-30.4-8.1c-3-.8-4.8-3.9-4-6.9,.8-3,3.9-4.8,6.9-4l30.4,8.1c3,.8,4.8,3.9,4,6.9-.7,2.5-2.9,4.2-5.4,4.2Z"/><path class="ymas_2-1" d="M220.9,124.4c-.5,0-1,0-1.5-.2-3-.8-4.8-3.9-4-6.9l8.1-30.4c.8-3,3.9-4.8,6.9-4,3,.8,4.8,3.9,4,6.9l-8.1,30.4c-.7,2.5-2.9,4.2-5.4,4.2Z"/></g><g><path class="ymas_2-1" d="M285.6,236.5c-1,0-1.9-.2-2.8-.8l-129.5-74.8c-2.7-1.5-3.6-5-2.1-7.7,1.6-2.7,5-3.6,7.7-2.1l129.5,74.8c2.7,1.5,3.6,5,2.1,7.7-1,1.8-2.9,2.8-4.9,2.8Z"/><path class="ymas_2-1" d="M258.9,239.3c-2.5,0-4.7-1.7-5.4-4.2l-5.8-21.6c-.8-3,1-6.1,4-6.9,3-.8,6.1,1,6.9,4l5.8,21.6c.8,3-1,6.1-4,6.9-.5,.1-1,.2-1.5,.2Z"/><path class="ymas_2-1" d="M253.1,217.8c-2.5,0-4.7-1.7-5.4-4.2-.8-3,1-6.1,4-6.9l21.6-5.8c3-.8,6.1,1,6.9,4,.8,3-1,6.1-4,6.9l-21.6,5.8c-.5,.1-1,.2-1.5,.2Z"/><path class="ymas_2-1" d="M229,229.5c-2.5,0-4.7-1.7-5.4-4.2l-8.1-30.4c-.8-3,1-6.1,4-6.9,3-.8,6.1,1,6.9,4l8.1,30.4c.8,3-1,6.1-4,6.9-.5,.1-1,.2-1.5,.2Z"/><path class="ymas_2-1" d="M220.9,199.1c-2.5,0-4.7-1.7-5.4-4.2-.8-3,1-6.1,4-6.9l30.4-8.1c3-.8,6.1,1,6.9,4,.8,3-1,6.1-4,6.9l-30.4,8.1c-.5,.1-1,.2-1.5,.2Z"/></g><g><path class="ymas_2-1" d="M156.1,311.3c-3.1,0-5.6-2.5-5.6-5.6V156.1c0-3.1,2.5-5.6,5.6-5.6s5.6,2.5,5.6,5.6v149.5c0,3.1-2.5,5.6-5.6,5.6Z"/><path class="ymas_2-1" d="M140.3,289.6c-1.4,0-2.9-.5-4-1.6-2.2-2.2-2.2-5.7,0-7.9l15.8-15.8c2.2-2.2,5.7-2.2,7.9,0,2.2,2.2,2.2,5.7,0,7.9l-15.8,15.8c-1.1,1.1-2.5,1.6-4,1.6Z"/><path class="ymas_2-1" d="M171.9,289.6c-1.4,0-2.9-.5-4-1.6l-15.8-15.8c-2.2-2.2-2.2-5.7,0-7.9,2.2-2.2,5.7-2.2,7.9,0l15.8,15.8c2.2,2.2,2.2,5.7,0,7.9-1.1,1.1-2.5,1.6-4,1.6Z"/><path class="ymas_2-1" d="M133.9,258.8c-1.4,0-2.9-.5-4-1.6-2.2-2.2-2.2-5.7,0-7.9l22.2-22.2c2.2-2.2,5.7-2.2,7.9,0,2.2,2.2,2.2,5.7,0,7.9l-22.2,22.2c-1.1,1.1-2.5,1.6-4,1.6Z"/><path class="ymas_2-1" d="M178.4,258.8c-1.4,0-2.9-.5-4-1.6l-22.2-22.2c-2.2-2.2-2.2-5.7,0-7.9,2.2-2.2,5.7-2.2,7.9,0l22.2,22.2c2.2,2.2,2.2,5.7,0,7.9-1.1,1.1-2.5,1.6-4,1.6Z"/></g><g><path class="ymas_2-1" d="M26.6,236.5c-1.9,0-3.8-1-4.9-2.8-1.5-2.7-.6-6.1,2.1-7.7l129.5-74.8c2.7-1.5,6.1-.6,7.7,2.1,1.5,2.7,.6,6.1-2.1,7.7L29.4,235.8c-.9,.5-1.8,.8-2.8,.8Z"/><path class="ymas_2-1" d="M59.2,217.8c-.5,0-1,0-1.5-.2l-21.6-5.8c-3-.8-4.8-3.9-4-6.9,.8-3,3.9-4.8,6.9-4l21.6,5.8c3,.8,4.8,3.9,4,6.9-.7,2.5-2.9,4.2-5.4,4.2Z"/><path class="ymas_2-1" d="M53.4,239.3c-.5,0-1,0-1.5-.2-3-.8-4.8-3.9-4-6.9l5.8-21.6c.8-3,3.9-4.8,6.9-4,3,.8,4.8,3.9,4,6.9l-5.8,21.6c-.7,2.5-2.9,4.2-5.4,4.2Z"/><path class="ymas_2-1" d="M91.4,199.1c-.5,0-1,0-1.5-.2l-30.4-8.1c-3-.8-4.8-3.9-4-6.9,.8-3,3.9-4.8,6.9-4l30.4,8.1c3,.8,4.8,3.9,4,6.9-.7,2.5-2.9,4.2-5.4,4.2Z"/><path class="ymas_2-1" d="M83.2,229.5c-.5,0-1,0-1.5-.2-3-.8-4.8-3.9-4-6.9l8.1-30.4c.8-3,3.9-4.8,6.9-4,3,.8,4.8,3.9,4,6.9l-8.1,30.4c-.7,2.5-2.9,4.2-5.4,4.2Z"/></g><g><path class="ymas_2-1" d="M156.1,161.8c-1,0-1.9-.2-2.8-.8L23.8,86.2c-2.7-1.5-3.6-5-2.1-7.7,1.6-2.7,5-3.6,7.7-2.1l129.5,74.8c2.7,1.5,3.6,5,2.1,7.7-1,1.8-2.9,2.8-4.9,2.8Z"/><path class="ymas_2-1" d="M59.1,105.8c-2.5,0-4.7-1.7-5.4-4.2l-5.8-21.6c-.8-3,1-6.1,4-6.9,3-.8,6.1,1,6.9,4l5.8,21.6c.8,3-1,6.1-4,6.9-.5,.1-1,.2-1.5,.2Z"/><path class="ymas_2-1" d="M37.5,111.6c-2.5,0-4.7-1.7-5.4-4.2-.8-3,1-6.1,4-6.9l21.6-5.8c3-.8,6.1,1,6.9,4,.8,3-1,6.1-4,6.9l-21.6,5.8c-.5,.1-1,.2-1.5,.2Z"/><path class="ymas_2-1" d="M91.4,124.4c-2.5,0-4.7-1.7-5.4-4.2l-8.1-30.4c-.8-3,1-6.1,4-6.9,3-.8,6.1,1,6.9,4l8.1,30.4c.8,3-1,6.1-4,6.9-.5,.1-1,.2-1.5,.2Z"/><path class="ymas_2-1" d="M61,132.5c-2.5,0-4.7-1.7-5.4-4.2-.8-3,1-6.1,4-6.9l30.4-8.1c3-.8,6.1,1,6.9,4,.8,3-1,6.1-4,6.9l-30.4,8.1c-.5,.1-1,.2-1.5,.2Z"/></g><path class="ymas_2-1" d="M106.9,247.4c-1,0-2-.3-2.9-.8-2.7-1.6-3.5-5-2-7.7L201.2,71.5c1.6-2.7,5-3.5,7.7-2,2.7,1.6,3.5,5,2,7.7L111.7,244.7c-1,1.8-2.9,2.8-4.8,2.8Z"/><path class="ymas_2-1" d="M106.9,247.4c-1,0-2-.3-2.9-.8-2.7-1.6-3.5-5-2-7.7L201.2,71.5c1.6-2.7,5-3.5,7.7-2,2.7,1.6,3.5,5,2,7.7L111.7,244.7c-1,1.8-2.9,2.8-4.8,2.8Z"/><path class="ymas_2-1" d="M253.8,163.7H59.1c-3.1,0-5.6-2.5-5.6-5.6s2.5-5.6,5.6-5.6H253.8c3.1,0,5.6,2.5,5.6,5.6s-2.5,5.6-5.6,5.6Z"/><path class="ymas_2-1" d="M206.1,247.4c-1.9,0-3.8-1-4.8-2.8L102,77.2c-1.6-2.7-.7-6.1,2-7.7,2.7-1.6,6.1-.7,7.7,2l99.2,167.4c1.6,2.7,.7,6.1-2,7.7-.9,.5-1.9,.8-2.9,.8Z"/><g><circle class="cls-2" cx="156.5" cy="158.1" r="54.1"/><path class="ymas_2-1" d="M156.5,217.7c-32.9,0-59.7-26.8-59.7-59.7s26.8-59.7,59.7-59.7,59.7,26.8,59.7,59.7-26.8,59.7-59.7,59.7Zm0-108.1c-26.7,0-48.4,21.7-48.4,48.4s21.7,48.4,48.4,48.4,48.4-21.7,48.4-48.4-21.7-48.4-48.4-48.4Z"/></g></svg>