<?xml version="1.0" encoding="UTF-8"?><svg id="_레이어_4" xmlns="http://www.w3.org/2000/svg" viewBox="0 0 311.8 311.8"><defs><style>.ymas_4-1{fill:#fff;}.cls-2{fill:#0b0b0c;}</style></defs><g><path class="ymas_4-1" d="M155.9,162c-1.9,0-3.8-1-4.9-2.8-1.5-2.7-.6-6.1,2-7.6l129.2-74.6c2.7-1.5,6.1-.6,7.6,2,1.5,2.7,.6,6.1-2,7.6l-129.2,74.6c-.9,.5-1.8,.8-2.8,.8Z"/><path class="ymas_4-1" d="M265.8,129.6c-.9,0-1.8-.2-2.7-.7l-27.6-15.1c-2.7-1.5-3.7-4.9-2.2-7.6,1.5-2.7,4.9-3.7,7.6-2.2l27.6,15.1c2.7,1.5,3.7,4.9,2.2,7.6-1,1.9-2.9,2.9-4.9,2.9Z"/><path class="ymas_4-1" d="M238.2,114.5s0,0-.1,0c-3.1,0-5.5-2.6-5.5-5.7l.7-31.4c0-3.1,2.6-5.5,5.7-5.5,3.1,0,5.5,2.6,5.5,5.7l-.7,31.4c0,3-2.6,5.5-5.6,5.5Z"/><path class="ymas_4-1" d="M279.8,110.4c-.9,0-1.8-.2-2.7-.7l-17.8-9.7c-2.7-1.5-3.7-4.9-2.2-7.6,1.5-2.7,4.9-3.7,7.6-2.2l17.8,9.7c2.7,1.5,3.7,4.9,2.2,7.6-1,1.9-2.9,2.9-4.9,2.9Z"/><path class="ymas_4-1" d="M262.1,100.7s0,0-.1,0c-3.1,0-5.5-2.6-5.5-5.7l.4-20.2c0-3.1,2.6-5.5,5.7-5.5,3.1,0,5.5,2.6,5.5,5.7l-.4,20.2c0,3-2.6,5.5-5.6,5.5Z"/><path class="ymas_4-1" d="M252.6,149.8c-.9,0-1.8-.2-2.7-.7l-38.8-21.3c-2.7-1.5-3.7-4.9-2.2-7.6,1.5-2.7,4.9-3.7,7.6-2.2l38.8,21.3c2.7,1.5,3.7,4.9,2.2,7.6-1,1.9-2.9,2.9-4.9,2.9Z"/><path class="ymas_4-1" d="M213.9,128.5s0,0-.1,0c-3.1,0-5.5-2.6-5.5-5.7l1-44.2c0-3,2.6-5.5,5.6-5.5s0,0,.1,0c3.1,0,5.5,2.6,5.5,5.7l-1,44.2c0,3-2.6,5.5-5.6,5.5Z"/></g><g><path class="ymas_4-1" d="M285.1,236.6c-.9,0-1.9-.2-2.8-.8l-129.2-74.6c-2.7-1.5-3.6-5-2-7.6,1.5-2.7,5-3.6,7.6-2l129.2,74.6c2.7,1.5,3.6,5,2,7.6-1,1.8-2.9,2.8-4.9,2.8Z"/><path class="ymas_4-1" d="M238.9,241c-3,0-5.5-2.4-5.6-5.5l-.7-31.4c0-3.1,2.4-5.7,5.5-5.7,3.1,0,5.7,2.4,5.7,5.5l.7,31.4c0,3.1-2.4,5.7-5.5,5.7,0,0,0,0-.1,0Z"/><path class="ymas_4-1" d="M238.2,209.5c-2,0-3.9-1.1-4.9-2.9-1.5-2.7-.5-6.1,2.2-7.6l27.6-15.1c2.7-1.5,6.1-.5,7.6,2.2,1.5,2.7,.5,6.1-2.2,7.6l-27.6,15.1c-.9,.5-1.8,.7-2.7,.7Z"/><path class="ymas_4-1" d="M262.5,243.5c-3,0-5.5-2.4-5.6-5.5l-.4-20.2c0-3.1,2.4-5.7,5.5-5.7,0,0,0,0,.1,0,3,0,5.5,2.4,5.6,5.5l.4,20.2c0,3.1-2.4,5.7-5.5,5.7,0,0,0,0-.1,0Z"/><path class="ymas_4-1" d="M262.1,223.3c-2,0-3.9-1.1-4.9-2.9-1.5-2.7-.5-6.1,2.2-7.6l17.8-9.7c2.7-1.5,6.1-.5,7.6,2.2,1.5,2.7,.5,6.1-2.2,7.6l-17.8,9.7c-.9,.5-1.8,.7-2.7,.7Z"/><path class="ymas_4-1" d="M214.8,239.7c-3,0-5.5-2.4-5.6-5.5l-1-44.2c0-3.1,2.4-5.7,5.5-5.7,3.1,0,5.7,2.4,5.7,5.5l1,44.2c0,3.1-2.4,5.7-5.5,5.7,0,0,0,0-.1,0Z"/><path class="ymas_4-1" d="M213.9,195.5c-2,0-3.9-1.1-4.9-2.9-1.5-2.7-.5-6.1,2.2-7.6l38.8-21.3c2.7-1.5,6.1-.5,7.6,2.2,1.5,2.7,.5,6.1-2.2,7.6l-38.8,21.3c-.9,.5-1.8,.7-2.7,.7Z"/></g><g><path class="ymas_4-1" d="M155.9,311.1c-3.1,0-5.6-2.5-5.6-5.6V156.4c0-3.1,2.5-5.6,5.6-5.6s5.6,2.5,5.6,5.6v149.1c0,3.1-2.5,5.6-5.6,5.6Z"/><path class="ymas_4-1" d="M129,273.4c-1.9,0-3.7-1-4.8-2.7-1.6-2.6-.8-6.1,1.9-7.7l26.9-16.3c2.6-1.6,6.1-.8,7.7,1.9,1.6,2.6,.8,6.1-1.9,7.7l-26.9,16.3c-.9,.6-1.9,.8-2.9,.8Z"/><path class="ymas_4-1" d="M182.8,273.4c-1,0-2-.3-2.9-.8l-26.9-16.3c-2.6-1.6-3.5-5-1.9-7.7,1.6-2.6,5-3.5,7.7-1.9l26.9,16.3c2.6,1.6,3.5,5,1.9,7.7-1.1,1.7-2.9,2.7-4.8,2.7Z"/><path class="ymas_4-1" d="M138.6,295.1c-1.9,0-3.7-1-4.8-2.7-1.6-2.6-.8-6.1,1.9-7.7l17.3-10.5c2.6-1.6,6.1-.8,7.7,1.9,1.6,2.6,.8,6.1-1.9,7.7l-17.3,10.5c-.9,.6-1.9,.8-2.9,.8Z"/><path class="ymas_4-1" d="M173.2,295.1c-1,0-2-.3-2.9-.8l-17.3-10.5c-2.6-1.6-3.5-5-1.9-7.7,1.6-2.6,5-3.5,7.7-1.9l17.3,10.5c2.6,1.6,3.5,5,1.9,7.7-1.1,1.7-2.9,2.7-4.8,2.7Z"/><path class="ymas_4-1" d="M118.1,251.9c-1.9,0-3.7-1-4.8-2.7-1.6-2.6-.8-6.1,1.9-7.7l37.8-23c2.6-1.6,6.1-.8,7.7,1.9,1.6,2.6,.8,6.1-1.9,7.7l-37.8,23c-.9,.6-1.9,.8-2.9,.8Z"/><path class="ymas_4-1" d="M193.7,251.9c-1,0-2-.3-2.9-.8l-37.8-23c-2.6-1.6-3.5-5-1.9-7.7,1.6-2.6,5-3.5,7.7-1.9l37.8,23c2.6,1.6,3.5,5,1.9,7.7-1.1,1.7-2.9,2.7-4.8,2.7Z"/></g><g><path class="ymas_4-1" d="M26.8,236.6c-1.9,0-3.8-1-4.9-2.8-1.5-2.7-.6-6.1,2-7.6l129.2-74.6c2.7-1.5,6.1-.6,7.6,2,1.5,2.7,.6,6.1-2,7.6L29.5,235.8c-.9,.5-1.8,.8-2.8,.8Z"/><path class="ymas_4-1" d="M73.6,209.5c-.9,0-1.8-.2-2.7-.7l-27.6-15.1c-2.7-1.5-3.7-4.9-2.2-7.6,1.5-2.7,4.9-3.7,7.6-2.2l27.6,15.1c2.7,1.5,3.7,4.9,2.2,7.6-1,1.9-2.9,2.9-4.9,2.9Z"/><path class="ymas_4-1" d="M72.9,241s0,0-.1,0c-3.1,0-5.5-2.6-5.5-5.7l.7-31.4c0-3.1,2.6-5.5,5.7-5.5,3.1,0,5.5,2.6,5.5,5.7l-.7,31.4c0,3-2.6,5.5-5.6,5.5Z"/><path class="ymas_4-1" d="M49.7,223.3c-.9,0-1.8-.2-2.7-.7l-17.8-9.7c-2.7-1.5-3.7-4.9-2.2-7.6,1.5-2.7,4.9-3.7,7.6-2.2l17.8,9.7c2.7,1.5,3.7,4.9,2.2,7.6-1,1.9-2.9,2.9-4.9,2.9Z"/><path class="ymas_4-1" d="M49.3,243.5s0,0-.1,0c-3.1,0-5.5-2.6-5.5-5.7l.4-20.2c0-3,2.6-5.5,5.6-5.5s0,0,.1,0c3.1,0,5.5,2.6,5.5,5.7l-.4,20.2c0,3-2.6,5.5-5.6,5.5Z"/><path class="ymas_4-1" d="M98,195.5c-.9,0-1.8-.2-2.7-.7l-38.8-21.3c-2.7-1.5-3.7-4.9-2.2-7.6,1.5-2.7,4.9-3.7,7.6-2.2l38.8,21.3c2.7,1.5,3.7,4.9,2.2,7.6-1,1.9-2.9,2.9-4.9,2.9Z"/><path class="ymas_4-1" d="M97,239.7s0,0-.1,0c-3.1,0-5.5-2.6-5.5-5.7l1-44.2c0-3,2.6-5.5,5.6-5.5s0,0,.1,0c3.1,0,5.5,2.6,5.5,5.7l-1,44.2c0,3-2.6,5.5-5.6,5.5Z"/></g><g><path class="ymas_4-1" d="M155.9,162c-.9,0-1.9-.2-2.8-.8L23.9,86.7c-2.7-1.5-3.6-5-2-7.6,1.5-2.7,5-3.6,7.6-2l129.2,74.6c2.7,1.5,3.6,5,2,7.6-1,1.8-2.9,2.8-4.9,2.8Z"/><path class="ymas_4-1" d="M73.6,114.5c-3,0-5.5-2.4-5.6-5.5l-.7-31.4c0-3.1,2.4-5.7,5.5-5.7,3.1,0,5.7,2.4,5.7,5.5l.7,31.4c0,3.1-2.4,5.7-5.5,5.7,0,0,0,0-.1,0Z"/><path class="ymas_4-1" d="M46,129.6c-2,0-3.9-1.1-4.9-2.9-1.5-2.7-.5-6.1,2.2-7.6l27.6-15.1c2.7-1.5,6.1-.5,7.6,2.2,1.5,2.7,.5,6.1-2.2,7.6l-27.6,15.1c-.9,.5-1.8,.7-2.7,.7Z"/><path class="ymas_4-1" d="M49.7,100.7c-3,0-5.5-2.4-5.6-5.5l-.4-20.2c0-3.1,2.4-5.7,5.5-5.7,3.1,0,5.7,2.4,5.7,5.5l.4,20.2c0,3.1-2.4,5.7-5.5,5.7,0,0,0,0-.1,0Z"/><path class="ymas_4-1" d="M32,110.4c-2,0-3.9-1.1-4.9-2.9-1.5-2.7-.5-6.1,2.2-7.6l17.8-9.7c2.7-1.5,6.1-.5,7.6,2.2,1.5,2.7,.5,6.1-2.2,7.6l-17.8,9.7c-.9,.5-1.8,.7-2.7,.7Z"/><path class="ymas_4-1" d="M98,128.5c-3,0-5.5-2.4-5.6-5.5l-1-44.2c0-3.1,2.4-5.7,5.5-5.7,3.1,0,5.7,2.4,5.7,5.5l1,44.2c0,3.1-2.4,5.7-5.5,5.7,0,0,0,0-.1,0Z"/><path class="ymas_4-1" d="M59.2,149.8c-2,0-3.9-1.1-4.9-2.9-1.5-2.7-.5-6.1,2.2-7.6l38.8-21.3c2.7-1.5,6.1-.5,7.6,2.2s.5,6.1-2.2,7.6l-38.8,21.3c-.9,.5-1.8,.7-2.7,.7Z"/></g><g><path class="ymas_4-1" d="M155.9,162c-3.1,0-5.6-2.5-5.6-5.6V7.3c0-3.1,2.5-5.6,5.6-5.6s5.6,2.5,5.6,5.6V156.4c0,3.1-2.5,5.6-5.6,5.6Z"/><path class="ymas_4-1" d="M155.9,67c-1.9,0-3.7-1-4.8-2.7-1.6-2.6-.8-6.1,1.9-7.7l26.9-16.3c2.6-1.6,6.1-.8,7.7,1.9,1.6,2.6,.8,6.1-1.9,7.7l-26.9,16.3c-.9,.6-1.9,.8-2.9,.8Z"/><path class="ymas_4-1" d="M155.9,67c-1,0-2-.3-2.9-.8l-26.9-16.3c-2.6-1.6-3.5-5-1.9-7.7,1.6-2.6,5-3.5,7.7-1.9l26.9,16.3c2.6,1.6,3.5,5,1.9,7.7-1.1,1.7-2.9,2.7-4.8,2.7Z"/><path class="ymas_4-1" d="M155.9,39.4c-1.9,0-3.7-1-4.8-2.7-1.6-2.6-.8-6.1,1.9-7.7l17.3-10.5c2.6-1.6,6.1-.8,7.7,1.9,1.6,2.6,.8,6.1-1.9,7.7l-17.3,10.5c-.9,.6-1.9,.8-2.9,.8Z"/><path class="ymas_4-1" d="M155.9,39.4c-1,0-2-.3-2.9-.8l-17.3-10.5c-2.6-1.6-3.5-5-1.9-7.7,1.6-2.6,5-3.5,7.7-1.9l17.3,10.5c2.6,1.6,3.5,5,1.9,7.7-1.1,1.7-2.9,2.7-4.8,2.7Z"/><path class="ymas_4-1" d="M155.9,95.1c-1.9,0-3.7-1-4.8-2.7-1.6-2.6-.8-6.1,1.9-7.7l37.8-23c2.6-1.6,6.1-.8,7.7,1.9,1.6,2.6,.8,6.1-1.9,7.7l-37.8,23c-.9,.6-1.9,.8-2.9,.8Z"/><path class="ymas_4-1" d="M155.9,95.1c-1,0-2-.3-2.9-.8l-37.8-23c-2.6-1.6-3.5-5-1.9-7.7,1.6-2.6,5-3.5,7.7-1.9l37.8,23c2.6,1.6,3.5,5,1.9,7.7-1.1,1.7-2.9,2.7-4.8,2.7Z"/></g><g><polygon class="cls-2" points="176.9 168.5 176.9 144.3 155.9 132.2 134.9 144.3 134.9 168.5 155.9 180.6 176.9 168.5"/><path class="ymas_4-1" d="M155.9,186.5c-1,0-2-.3-3-.8l-21-12.1c-1.8-1.1-3-3-3-5.1v-24.2c0-2.1,1.1-4.1,3-5.1l21-12.1c1.8-1.1,4.1-1.1,5.9,0l21,12.1c1.8,1.1,3,3,3,5.1v24.2c0,2.1-1.1,4.1-3,5.1l-21,12.1c-.9,.5-1.9,.8-3,.8Zm-15-21.5l15,8.7,15-8.7v-17.4l-15-8.7-15,8.7v17.4Zm36,3.4h0Z"/></g><path class="ymas_4-1" d="M155.9,214.5c-1,0-2-.3-3-.8l-45.2-26.1c-1.8-1.1-3-3-3-5.1v-52.3c0-2.1,1.1-4.1,3-5.1l45.2-26.1c1.8-1.1,4.1-1.1,5.9,0l45.3,26.1c1.8,1.1,3,3,3,5.1v52.3c0,2.1-1.1,4.1-3,5.1l-45.3,26.1c-.9,.5-1.9,.8-3,.8Zm-39.3-35.5l39.3,22.7,39.3-22.7v-45.4l-39.3-22.7-39.3,22.7v45.4Zm84.6,3.4h0Z"/></svg>