<?xml version="1.0" encoding="UTF-8"?><svg id="_레이어_4" xmlns="http://www.w3.org/2000/svg" viewBox="0 0 311.8 311.8"><defs><style>.ymas_3-1{fill:#fff;}</style></defs><path class="ymas_3-1" d="M131.5,214.5c-.8,0-1.7-.2-2.5-.7-1.7-1-2.7-2.9-2.5-4.8l3.6-34.3-31.6-13.8c-1.8-.8-3-2.6-3-4.5,0-2,1.1-3.7,2.9-4.5l31.5-14-3.9-34.3c-.2-1.9,.7-3.8,2.4-4.8,1.7-1,3.8-.9,5.4,.3l27.9,20.3,27.8-20.5c1.6-1.2,3.7-1.3,5.4-.3,1.7,1,2.7,2.9,2.5,4.8l-3.6,34.3,31.6,13.8c1.8,.8,3,2.6,3,4.5,0,2-1.1,3.7-2.9,4.5l-31.5,14,3.9,34.3c.2,1.9-.7,3.8-2.4,4.8-1.7,1-3.8,.9-5.4-.3l-27.9-20.3-27.8,20.5c-.9,.6-1.9,1-2.9,1Zm-18.7-58.2l24.7,10.8c2,.9,3.2,2.9,2.9,5.1l-2.8,26.8,21.6-16c1.7-1.3,4.1-1.3,5.8,0l21.8,15.8-3-26.7c-.2-2.1,.9-4.2,2.9-5.1l24.6-10.9-24.7-10.8c-2-.9-3.2-2.9-2.9-5.1l2.8-26.8-21.6,16c-1.7,1.3-4.1,1.3-5.8,0l-21.8-15.8,3,26.7c.2,2.1-.9,4.2-2.9,5.1l-24.6,10.9Z"/><g><path class="ymas_3-1" d="M162.1,161.1c-1.7,0-3.4-.9-4.3-2.5-1.4-2.4-.6-5.4,1.8-6.8l112.9-65.2c2.4-1.4,5.4-.6,6.8,1.8,1.4,2.4,.6,5.4-1.8,6.8l-112.9,65.2c-.8,.5-1.6,.7-2.5,.7Z"/><path class="ymas_3-1" d="M258,127.9c-.7,0-1.4-.1-2-.4l-21.5-9.8c-2.5-1.1-3.6-4.1-2.5-6.6,1.1-2.5,4.1-3.6,6.6-2.5l21.5,9.8c2.5,1.1,3.6,4.1,2.5,6.6-.8,1.8-2.6,2.9-4.5,2.9Z"/><path class="ymas_3-1" d="M236.4,118.2c-.2,0-.3,0-.5,0-2.7-.3-4.7-2.7-4.4-5.4l2.3-23.5c.3-2.7,2.7-4.7,5.4-4.4,2.7,.3,4.7,2.7,4.4,5.4l-2.3,23.5c-.3,2.6-2.4,4.5-4.9,4.5Z"/><path class="ymas_3-1" d="M273,113.8c-.7,0-1.4-.1-2-.4l-16.3-7.4c-2.5-1.1-3.6-4.1-2.5-6.6,1.1-2.5,4.1-3.6,6.6-2.5l16.3,7.4c2.5,1.1,3.6,4.1,2.5,6.6-.8,1.8-2.6,2.9-4.5,2.9Z"/><path class="ymas_3-1" d="M256.8,106.4c-.2,0-.3,0-.5,0-2.7-.3-4.7-2.7-4.4-5.4l1.8-17.8c.3-2.7,2.7-4.7,5.4-4.4,2.7,.3,4.7,2.7,4.4,5.4l-1.8,17.8c-.3,2.6-2.4,4.5-4.9,4.5Z"/><path class="ymas_3-1" d="M244,145c-.7,0-1.4-.1-2-.4l-30.3-13.7c-2.5-1.1-3.6-4.1-2.5-6.6,1.1-2.5,4.1-3.6,6.6-2.5l30.3,13.7c2.5,1.1,3.6,4.1,2.5,6.6-.8,1.8-2.6,2.9-4.5,2.9Z"/><path class="ymas_3-1" d="M213.7,131.3c-.2,0-.3,0-.5,0-2.7-.3-4.7-2.7-4.4-5.4l3.3-33.1c.3-2.7,2.7-4.7,5.4-4.4,2.7,.3,4.7,2.7,4.4,5.4l-3.3,33.1c-.3,2.6-2.4,4.5-4.9,4.5Z"/><circle class="ymas_3-1" cx="281.8" cy="87" r="11.3"/></g><g><path class="ymas_3-1" d="M275,226.3c-.8,0-1.7-.2-2.5-.7l-112.9-65.2c-2.4-1.4-3.2-4.4-1.8-6.8,1.4-2.4,4.4-3.2,6.8-1.8l112.9,65.2c2.4,1.4,3.2,4.4,1.8,6.8-.9,1.6-2.6,2.5-4.3,2.5Z"/><path class="ymas_3-1" d="M238.8,227.6c-2.5,0-4.7-1.9-4.9-4.5l-2.3-23.5c-.3-2.7,1.7-5.1,4.4-5.4,2.7-.3,5.1,1.7,5.4,4.4l2.3,23.5c.3,2.7-1.7,5.1-4.4,5.4-.2,0-.3,0-.5,0Z"/><path class="ymas_3-1" d="M236.4,204c-1.9,0-3.7-1.1-4.5-2.9-1.1-2.5,0-5.4,2.5-6.6l21.5-9.8c2.5-1.1,5.4,0,6.6,2.5,1.1,2.5,0,5.4-2.5,6.6l-21.5,9.8c-.7,.3-1.4,.4-2,.4Z"/><path class="ymas_3-1" d="M258.5,233.5c-2.5,0-4.7-1.9-4.9-4.5l-1.8-17.8c-.3-2.7,1.7-5.1,4.4-5.4,2.7-.3,5.1,1.7,5.4,4.4l1.8,17.8c.3,2.7-1.7,5.1-4.4,5.4-.2,0-.3,0-.5,0Z"/><path class="ymas_3-1" d="M256.8,215.8c-1.9,0-3.7-1.1-4.5-2.9-1.1-2.5,0-5.4,2.5-6.6l16.3-7.4c2.5-1.1,5.4,0,6.6,2.5,1.1,2.5,0,5.4-2.5,6.6l-16.3,7.4c-.7,.3-1.4,.4-2,.4Z"/><path class="ymas_3-1" d="M217,224c-2.5,0-4.7-1.9-4.9-4.5l-3.3-33.1c-.3-2.7,1.7-5.1,4.4-5.4,2.7-.3,5.1,1.7,5.4,4.4l3.3,33.1c.3,2.7-1.7,5.1-4.4,5.4-.2,0-.3,0-.5,0Z"/><path class="ymas_3-1" d="M213.7,190.9c-1.9,0-3.7-1.1-4.5-2.9-1.1-2.5,0-5.4,2.5-6.6l30.3-13.7c2.5-1.1,5.4,0,6.6,2.5,1.1,2.5,0,5.4-2.5,6.6l-30.3,13.7c-.7,.3-1.4,.4-2,.4Z"/><circle class="ymas_3-1" cx="281.8" cy="225.3" r="11.3"/></g><g><path class="ymas_3-1" d="M162.1,291.4c-2.7,0-5-2.2-5-5V156.1c0-2.7,2.2-5,5-5s5,2.2,5,5v130.3c0,2.7-2.2,5-5,5Z"/><path class="ymas_3-1" d="M142.9,260.7c-1.5,0-3.1-.7-4-2.1-1.6-2.2-1.1-5.3,1.1-6.9l19.2-13.8c2.2-1.6,5.3-1.1,6.9,1.1,1.6,2.2,1.1,5.3-1.1,6.9l-19.2,13.8c-.9,.6-1.9,.9-2.9,.9Z"/><path class="ymas_3-1" d="M181.3,260.7c-1,0-2-.3-2.9-.9l-19.2-13.8c-2.2-1.6-2.7-4.7-1.1-6.9,1.6-2.2,4.7-2.7,6.9-1.1l19.2,13.8c2.2,1.6,2.7,4.7,1.1,6.9-1,1.3-2.5,2.1-4,2.1Z"/><path class="ymas_3-1" d="M147.6,280.8c-1.5,0-3.1-.7-4-2.1-1.6-2.2-1.1-5.3,1.1-6.9l14.5-10.4c2.2-1.6,5.3-1.1,6.9,1.1,1.6,2.2,1.1,5.3-1.1,6.9l-14.5,10.4c-.9,.6-1.9,.9-2.9,.9Z"/><path class="ymas_3-1" d="M176.6,280.8c-1,0-2-.3-2.9-.9l-14.5-10.4c-2.2-1.6-2.7-4.7-1.1-6.9,1.6-2.2,4.7-2.7,6.9-1.1l14.5,10.4c2.2,1.6,2.7,4.7,1.1,6.9-1,1.3-2.5,2.1-4,2.1Z"/><path class="ymas_3-1" d="M135,240.1c-1.5,0-3.1-.7-4-2.1-1.6-2.2-1.1-5.3,1.1-6.9l27-19.4c2.2-1.6,5.3-1.1,6.9,1.1,1.6,2.2,1.1,5.3-1.1,6.9l-27,19.4c-.9,.6-1.9,.9-2.9,.9Z"/><path class="ymas_3-1" d="M189.1,240.1c-1,0-2-.3-2.9-.9l-27-19.4c-2.2-1.6-2.7-4.7-1.1-6.9,1.6-2.2,4.7-2.7,6.9-1.1l27,19.4c2.2,1.6,2.7,4.7,1.1,6.9-1,1.3-2.5,2.1-4,2.1Z"/><circle class="ymas_3-1" cx="162.1" cy="294.4" r="11.3"/></g><g><path class="ymas_3-1" d="M49.2,226.3c-1.7,0-3.4-.9-4.3-2.5-1.4-2.4-.6-5.4,1.8-6.8l112.9-65.2c2.4-1.4,5.4-.6,6.8,1.8,1.4,2.4,.6,5.4-1.8,6.8L51.7,225.6c-.8,.5-1.6,.7-2.5,.7Z"/><path class="ymas_3-1" d="M87.7,204c-.7,0-1.4-.1-2-.4l-21.5-9.8c-2.5-1.1-3.6-4.1-2.5-6.6,1.1-2.5,4.1-3.6,6.6-2.5l21.5,9.8c2.5,1.1,3.6,4.1,2.5,6.6-.8,1.8-2.6,2.9-4.5,2.9Z"/><path class="ymas_3-1" d="M85.4,227.6c-.2,0-.3,0-.5,0-2.7-.3-4.7-2.7-4.4-5.4l2.3-23.5c.3-2.7,2.7-4.7,5.4-4.4,2.7,.3,4.7,2.7,4.4,5.4l-2.3,23.5c-.3,2.6-2.4,4.5-4.9,4.5Z"/><path class="ymas_3-1" d="M67.4,215.8c-.7,0-1.4-.1-2-.4l-16.3-7.4c-2.5-1.1-3.6-4.1-2.5-6.6,1.1-2.5,4.1-3.6,6.6-2.5l16.3,7.4c2.5,1.1,3.6,4.1,2.5,6.6-.8,1.8-2.6,2.9-4.5,2.9Z"/><path class="ymas_3-1" d="M65.7,233.5c-.2,0-.3,0-.5,0-2.7-.3-4.7-2.7-4.4-5.4l1.8-17.8c.3-2.7,2.7-4.7,5.4-4.4,2.7,.3,4.7,2.7,4.4,5.4l-1.8,17.8c-.3,2.6-2.4,4.5-4.9,4.5Z"/><path class="ymas_3-1" d="M110.5,190.9c-.7,0-1.4-.1-2-.4l-30.3-13.7c-2.5-1.1-3.6-4.1-2.5-6.6,1.1-2.5,4.1-3.6,6.6-2.5l30.3,13.7c2.5,1.1,3.6,4.1,2.5,6.6-.8,1.8-2.6,2.9-4.5,2.9Z"/><path class="ymas_3-1" d="M107.2,224c-.2,0-.3,0-.5,0-2.7-.3-4.7-2.7-4.4-5.4l3.3-33.1c.3-2.7,2.7-4.7,5.4-4.4,2.7,.3,4.7,2.7,4.4,5.4l-3.3,33.1c-.3,2.6-2.4,4.5-4.9,4.5Z"/><circle class="ymas_3-1" cx="42.4" cy="225.3" r="11.3"/></g><g><path class="ymas_3-1" d="M162.1,161.1c-.8,0-1.7-.2-2.5-.7L46.7,95.3c-2.4-1.4-3.2-4.4-1.8-6.8,1.4-2.4,4.4-3.2,6.8-1.8l112.9,65.2c2.4,1.4,3.2,4.4,1.8,6.8-.9,1.6-2.6,2.5-4.3,2.5Z"/><path class="ymas_3-1" d="M87.7,118.2c-2.5,0-4.7-1.9-4.9-4.5l-2.3-23.5c-.3-2.7,1.7-5.1,4.4-5.4,2.7-.3,5.1,1.7,5.4,4.4l2.3,23.5c.3,2.7-1.7,5.1-4.4,5.4-.2,0-.3,0-.5,0Z"/><path class="ymas_3-1" d="M66.2,127.9c-1.9,0-3.7-1.1-4.5-2.9-1.1-2.5,0-5.4,2.5-6.6l21.5-9.8c2.5-1.1,5.4,0,6.6,2.5,1.1,2.5,0,5.4-2.5,6.6l-21.5,9.8c-.7,.3-1.4,.4-2,.4Z"/><path class="ymas_3-1" d="M67.4,106.4c-2.5,0-4.7-1.9-4.9-4.5l-1.8-17.8c-.3-2.7,1.7-5.1,4.4-5.4,2.7-.3,5.1,1.7,5.4,4.4l1.8,17.8c.3,2.7-1.7,5.1-4.4,5.4-.2,0-.3,0-.5,0Z"/><path class="ymas_3-1" d="M51.1,113.8c-1.9,0-3.7-1.1-4.5-2.9-1.1-2.5,0-5.4,2.5-6.6l16.3-7.4c2.5-1.1,5.4,0,6.6,2.5,1.1,2.5,0,5.4-2.5,6.6l-16.3,7.4c-.7,.3-1.4,.4-2,.4Z"/><path class="ymas_3-1" d="M110.5,131.3c-2.5,0-4.7-1.9-4.9-4.5l-3.3-33.1c-.3-2.7,1.7-5.1,4.4-5.4,2.7-.3,5.1,1.7,5.4,4.4l3.3,33.1c.3,2.7-1.7,5.1-4.4,5.4-.2,0-.3,0-.5,0Z"/><path class="ymas_3-1" d="M80.2,145c-1.9,0-3.7-1.1-4.5-2.9-1.1-2.5,0-5.4,2.5-6.6l30.3-13.7c2.5-1.1,5.4,0,6.6,2.5,1.1,2.5,0,5.4-2.5,6.6l-30.3,13.7c-.7,.3-1.4,.4-2,.4Z"/><circle class="ymas_3-1" cx="42.4" cy="87" r="11.3"/></g><g><path class="ymas_3-1" d="M162.1,161.1c-2.7,0-5-2.2-5-5V25.8c0-2.7,2.2-5,5-5s5,2.2,5,5V156.1c0,2.7-2.2,5-5,5Z"/><path class="ymas_3-1" d="M162.1,75.2c-1.5,0-3.1-.7-4-2.1-1.6-2.2-1.1-5.3,1.1-6.9l19.2-13.8c2.2-1.6,5.3-1.1,6.9,1.1,1.6,2.2,1.1,5.3-1.1,6.9l-19.2,13.8c-.9,.6-1.9,.9-2.9,.9Z"/><path class="ymas_3-1" d="M162.1,75.2c-1,0-2-.3-2.9-.9l-19.2-13.8c-2.2-1.6-2.7-4.7-1.1-6.9,1.6-2.2,4.7-2.7,6.9-1.1l19.2,13.8c2.2,1.6,2.7,4.7,1.1,6.9-1,1.3-2.5,2.1-4,2.1Z"/><path class="ymas_3-1" d="M162.1,51.8c-1.5,0-3.1-.7-4-2.1-1.6-2.2-1.1-5.3,1.1-6.9l14.5-10.4c2.2-1.6,5.3-1.1,6.9,1.1,1.6,2.2,1.1,5.3-1.1,6.9l-14.5,10.4c-.9,.6-1.9,.9-2.9,.9Z"/><path class="ymas_3-1" d="M162.1,51.8c-1,0-2-.3-2.9-.9l-14.5-10.4c-2.2-1.6-2.7-4.7-1.1-6.9,1.6-2.2,4.7-2.7,6.9-1.1l14.5,10.4c2.2,1.6,2.7,4.7,1.1,6.9-1,1.3-2.5,2.1-4,2.1Z"/><path class="ymas_3-1" d="M162.1,101.5c-1.5,0-3.1-.7-4-2.1-1.6-2.2-1.1-5.3,1.1-6.9l27-19.4c2.2-1.6,5.3-1.1,6.9,1.1,1.6,2.2,1.1,5.3-1.1,6.9l-27,19.4c-.9,.6-1.9,.9-2.9,.9Z"/><path class="ymas_3-1" d="M162.1,101.5c-1,0-2-.3-2.9-.9l-27-19.4c-2.2-1.6-2.7-4.7-1.1-6.9,1.6-2.2,4.7-2.7,6.9-1.1l27,19.4c2.2,1.6,2.7,4.7,1.1,6.9-1,1.3-2.5,2.1-4,2.1Z"/><circle class="ymas_3-1" cx="162.1" cy="17.9" r="11.3"/></g></svg>