<?xml version="1.0" encoding="UTF-8"?><svg id="_레이어_1" xmlns="http://www.w3.org/2000/svg" xmlns:xlink="http://www.w3.org/1999/xlink" viewBox="0 0 283.46 283.46"><defs><style>.blackhole_svg_1{fill:#fff;}.blackhole_svg_2{filter:url(#outer-glow-3);}.blackhole_svg_3{filter:url(#outer-glow-1);}.blackhole_svg_4{filter:url(#outer-glow-2);}</style><filter id="outer-glow-1" filterUnits="userSpaceOnUse"><feOffset dx="0" dy="0"/><feGaussianBlur result="blur" stdDeviation="5.1"/><feFlood flood-color="#dd8a03" flood-opacity=".8"/><feComposite in2="blur" operator="in"/><feComposite in="SourceGraphic"/></filter><filter id="outer-glow-2" filterUnits="userSpaceOnUse"><feOffset dx="0" dy="0"/><feGaussianBlur result="blur-2" stdDeviation="2.55"/><feFlood flood-color="#000b8c" flood-opacity="1"/><feComposite in2="blur-2" operator="in"/><feComposite in="SourceGraphic"/></filter><filter id="outer-glow-3" filterUnits="userSpaceOnUse"><feOffset dx="0" dy="0"/><feGaussianBlur result="blur-3" stdDeviation="8.5"/><feFlood flood-color="#dd8a03" flood-opacity="1"/><feComposite in2="blur-3" operator="in"/><feComposite in="SourceGraphic"/></filter></defs><g class="blackhole_svg_3"><path class="blackhole_svg_1" d="M234.6,110.04c-.16-.47-.54-1.56-15.63,2.34-4.83,1.25-10.64,2.87-17.22,4.81,.05,.15,.1,.29,.16,.44,6.56-1.93,12.36-3.55,17.17-4.8,13.97-3.6,15.01-2.83,15.07-2.64,.06,.17-.16,2.01-25.87,12.3-17.19,6.88-40.29,15.35-65.03,23.85-24.74,8.5-48.17,16-65.96,21.13-26.62,7.68-27.91,6.36-27.97,6.19-.07-.19,.28-1.45,13.67-7.25,4.43-1.92,9.8-4.12,15.91-6.53-.05-.15-.09-.3-.12-.46-6.14,2.42-11.53,4.63-15.98,6.55-14.47,6.26-14.09,7.36-13.93,7.83,.18,.53,.73,2.13,28.54-5.89,3.34-.96,6.87-2.01,10.58-3.13,16.06-4.85,35.3-11.11,55.4-18.01,24.75-8.5,47.85-16.97,65.05-23.85,26.87-10.76,26.32-12.36,26.14-12.89Z"/><path class="blackhole_svg_1" d="M228.85,111.39c-2.16-.47-11.86,1.76-26.97,6.14,.05,.15,.1,.3,.16,.44,14.9-4.31,24.65-6.57,26.72-6.13,.22,.05,.26,.11,.26,.11,.05,.15-.15,1.76-21.88,10.57-14.63,5.93-34.78,13.41-56.74,21.05-47.97,16.7-90.89,29.44-95.67,28.41-.22-.05-.26-.11-.26-.11-.21-.66,5.24-3.92,24.57-11.66-.06-.14-.12-.29-.16-.44-12.74,5.09-25,10.44-24.88,12.12,.01,.19,.13,.43,.63,.53,2.64,.57,16.58-2.95,36.48-8.97,16.68-5.04,37.54-11.84,59.44-19.46,39.36-13.7,79.11-29.12,78.93-32.09-.01-.19-.13-.43-.63-.54Z"/><path class="blackhole_svg_1" d="M223.22,112.9c-3.07,.17-10.49,1.92-21.22,4.96,.05,.15,.1,.29,.16,.44,10.68-3.03,18.05-4.76,21.09-4.93,1.17-.06,1.3,.13,1.3,.13,.03,.24-.72,1.78-18.4,9.05-12.23,5.03-29.5,11.52-48.61,18.28-44.92,15.87-88.56,29.17-97.3,29.66-1.17,.06-1.3-.13-1.3-.13-.1-.82,6.34-4.14,20.27-9.81-.09-.13-.16-.28-.22-.42-3.44,1.4-6.51,2.69-9.16,3.85-11.64,5.1-11.43,6.06-11.35,6.47,.09,.41,.62,.56,1.78,.5,4.23-.23,16.56-3.45,33.24-8.49,17.94-5.42,40.9-12.96,64.19-21.19,19.17-6.77,36.47-13.28,48.72-18.32,18.94-7.8,18.68-9.06,18.59-9.54-.08-.42-.62-.57-1.78-.5Z"/><path class="blackhole_svg_1" d="M217.62,114.41c-3.22,.51-8.52,1.78-15.53,3.72,.05,.15,.11,.29,.16,.44,6.97-1.93,12.25-3.2,15.44-3.7,2.84-.45,3.14-.14,3.16-.12,.07,1.23-14.83,8.45-56.18,23.31-41.85,15.04-86.2,28.9-98.88,30.91-2.84,.45-3.14,.15-3.16,.12-.03-.6,3.91-2.99,16.75-8.31-.1-.12-.19-.26-.26-.39-2.48,1.03-4.74,1.99-6.72,2.87-10.56,4.67-10.33,5.57-10.22,5.95,.11,.4,.63,.71,3.69,.23,5.27-.83,15.98-3.7,29.71-7.85,19.38-5.86,44.76-14.27,69.26-23.07,9.57-3.44,57.27-20.75,56.48-23.87-.1-.41-.62-.71-3.69-.23Z"/><path class="blackhole_svg_1" d="M212.03,115.92c-2.6,.55-5.92,1.37-9.86,2.44,.05,.15,.11,.29,.16,.44,3.92-1.06,7.22-1.88,9.8-2.42,5.28-1.12,5.87-.74,5.93-.67,.03,1.27-14.44,7.95-46.25,19.6-38.78,14.21-83.84,28.63-100.46,32.15-5.28,1.12-5.87,.74-5.93,.67-.01-.55,3.37-2.63,14.13-7.16-.12-.12-.22-.24-.31-.38-1.79,.75-3.43,1.46-4.91,2.12-9.72,4.33-9.48,5.15-9.36,5.54,.15,.5,1.03,.81,6.47-.34,5.7-1.21,14.73-3.69,25.7-7.01,21.07-6.37,49.31-15.81,74.82-25.16,14.22-5.21,26.11-9.85,34.39-13.41,12.54-5.39,12.26-6.35,12.14-6.76-.15-.51-1.03-.82-6.47,.34Z"/><path class="blackhole_svg_1" d="M206.45,117.43c-1.29,.32-2.71,.68-4.23,1.08,.05,.15,.1,.29,.15,.44,1.5-.4,2.9-.76,4.19-1.07,8.71-2.14,9.61-1.66,9.69-1.56,0,.84-7.86,5.2-37.31,16.23-35.71,13.38-81.48,28.36-102.03,33.4-8.71,2.14-9.61,1.66-9.69,1.56,0-.51,3-2.38,12.36-6.38,0-.05,0-.09,0-.14-.09-.09-.17-.17-.24-.27-1.37,.58-2.64,1.14-3.8,1.66-9.12,4.09-8.88,4.88-8.76,5.26,.12,.38,.37,1.18,10.25-1.24,5.49-1.35,12.77-3.4,21.17-5.94,23.11-6.99,54.72-17.67,80.91-27.48,11.78-4.41,21.47-8.28,28.03-11.19,9.93-4.4,9.68-5.22,9.56-5.61-.12-.38-.37-1.18-10.25,1.24Z"/><path class="blackhole_svg_1" d="M215.97,116.44c-.13-.41-.44-1.35-13.72,2.14,.05,.15,.1,.3,.15,.44,11.84-3.11,13.02-2.58,13.13-2.45,0,.2-.83,2.23-29.44,13.23-32.63,12.54-79.11,28.09-103.6,34.65-13.16,3.53-14.42,2.95-14.53,2.82,0-.14,.45-1.26,11.63-6.06,0-.07,0-.13,0-.2-.07-.07-.14-.14-.2-.22-1.67,.72-3.17,1.38-4.5,1.99-7.73,3.55-7.49,4.28-7.38,4.63,.14,.42,.46,1.41,15.1-2.51,4.65-1.24,10.08-2.81,16.06-4.62,25.57-7.73,61.13-19.87,87.59-30.04,9.51-3.66,17.24-6.83,22.34-9.17,7.73-3.55,7.49-4.28,7.38-4.63Z"/><path class="blackhole_svg_1" d="M216.35,116.3c-.14-.4-.47-1.37-14.11,2.24,.05,.15,.1,.3,.15,.44,12.13-3.2,13.39-2.69,13.52-2.54,0,.27-1.09,2.04-22.68,10.6-29.56,11.71-76.74,27.81-105.17,35.9-18.66,5.31-20.34,4.63-20.48,4.46,0-.21,.7-1.39,12.01-6.23,0-.06,0-.11,0-.17-.08-.08-.16-.16-.23-.25-12.69,5.42-12.35,6.41-12.23,6.78,.16,.46,.57,1.67,21.05-4.15,3.22-.92,6.68-1.93,10.32-3.04,28.58-8.64,68.67-22.49,94.89-32.88,23.57-9.34,23.1-10.72,22.95-11.17Z"/><path class="blackhole_svg_1" d="M217.82,115.8c-.12-.33-.36-1.02-7.58,.61-2.24,.5-4.93,1.18-8.04,2.01,.05,.15,.11,.29,.16,.44,13.84-3.71,14.94-3.02,15.03-2.91,0,.22-.79,1.68-17.01,8.34-26.49,10.88-74.38,27.54-106.74,37.14-25.74,7.64-27.42,6.6-27.52,6.46,0-.21,.68-1.46,13.48-6.87,0,0,0-.01,0-.02-.12-.11-.22-.23-.31-.36-14.12,5.97-13.76,6.99-13.62,7.4,.12,.33,.36,1.02,7.58-.61,4.83-1.08,11.73-2.95,20.51-5.56,1.28-.38,2.58-.77,3.91-1.17,32.22-9.74,77.42-25.54,102.87-35.99,17.84-7.33,17.43-8.49,17.28-8.92Z"/><path class="blackhole_svg_1" d="M220.32,114.93c-.14-.37-.42-1.15-9.84,1.1-2.38,.57-5.19,1.3-8.36,2.17,.05,.14,.1,.29,.15,.43,16.25-4.47,17.51-3.69,17.6-3.56,0,.18-.54,1.36-12.38,6.44-23.41,10.05-71.99,27.27-108.3,38.39-33.45,10.24-35.47,9-35.59,8.83,0-.18,.54-1.36,12.38-6.44,1.1-.47,2.25-.96,3.46-1.46-.11-.12-.2-.25-.28-.39-1.17,.49-2.3,.96-3.36,1.42-13.14,5.64-12.79,6.61-12.63,7.03,.14,.37,.42,1.15,9.84-1.1,5.62-1.35,13.59-3.57,23.18-6.47,1.03-.31,2.09-.63,3.15-.96,36.32-11.13,84.92-28.36,108.35-38.41,13.14-5.64,12.79-6.61,12.63-7.03Z"/><path class="blackhole_svg_1" d="M223.75,113.75c-.15-.38-.49-1.27-11.91,1.57-2.83,.7-6.12,1.59-9.82,2.63,.05,.14,.1,.29,.16,.44,15.59-4.39,20.79-5.02,21.13-4.47,.02,.15-.33,1.08-8.68,4.87-20.34,9.21-69.63,27-109.87,39.64-34.18,10.74-44.12,12.29-44.6,11.51-.02-.15,.33-1.08,8.68-4.87,2.87-1.3,6.37-2.8,10.41-4.45-.09-.13-.16-.27-.23-.41-4.02,1.65-7.51,3.13-10.38,4.43-9.38,4.25-9.07,5.06-8.92,5.45,.15,.39,.5,1.3,12.43-1.7,5.7-1.43,13.17-3.55,21.97-6.21,3.4-1.03,7-2.14,10.77-3.32,40.25-12.65,89.56-30.44,109.92-39.66,9.38-4.25,9.07-5.06,8.92-5.45Z"/><path class="blackhole_svg_1" d="M228,112.28c-.16-.4-.54-1.35-13.22,1.85-3.65,.92-7.98,2.1-12.87,3.51,.05,.15,.1,.29,.16,.44,19.07-5.48,25.19-6.22,25.49-5.62,.01,.07-.03,.78-5.8,3.57-17.27,8.38-67.25,26.72-111.43,40.88-42.02,13.47-53.98,15.36-54.43,14.48-.01-.07,.03-.78,5.8-3.57,4.01-1.95,9.94-4.5,17.38-7.49-.07-.14-.13-.28-.18-.43-7.45,2.99-13.39,5.55-17.4,7.5-6.44,3.13-6.16,3.83-6.03,4.17,.16,.4,.58,1.45,15.35-2.4,5.69-1.48,12.72-3.49,20.8-5.93,5.78-1.75,12.1-3.72,18.85-5.88,44.19-14.17,94.21-32.52,111.49-40.91,6.44-3.13,6.16-3.83,6.03-4.16Z"/><path class="blackhole_svg_1" d="M232.95,110.57c-.73-1.73-16.22,2.34-31.16,6.73,.05,.15,.1,.29,.16,.44,23.08-6.77,30.28-7.68,30.57-6.98,0,0,.16,.51-3.62,2.52-14.19,7.55-64.88,26.44-112.99,42.12-46.71,15.22-64.43,18.92-64.95,17.7,0,0-.16-.51,3.62-2.53,4.58-2.44,12.98-6.08,24.36-10.58-.05-.15-.09-.3-.13-.45-11.43,4.52-19.85,8.17-24.45,10.62-3.7,1.97-4.03,2.66-3.83,3.12,.19,.44,.69,1.62,18.58-3.18,5.62-1.51,12.24-3.41,19.68-5.66,8.19-2.48,17.36-5.37,27.27-8.59,48.13-15.69,98.85-34.6,113.06-42.16,3.69-1.96,4.02-2.66,3.83-3.12Z"/><path class="blackhole_svg_1" d="M238.49,108.65c-.19-.42-.69-1.53-16.46,2.55-5.64,1.46-12.51,3.4-20.36,5.73,.05,.15,.1,.29,.15,.44,7.83-2.33,14.7-4.27,20.33-5.72,14.65-3.79,15.83-3,15.92-2.81,0,0,.14,.37-2.04,1.68-11.11,6.71-62.5,26.17-114.54,43.37-54.25,17.93-75.45,22.47-76.07,21.12,0,0-.14-.37,2.04-1.69,4.48-2.71,15.54-7.52,31.38-13.7-.04-.15-.07-.31-.09-.47-15.91,6.21-27.02,11.05-31.53,13.77-1.79,1.08-2.46,1.76-2.22,2.28,.2,.44,.82,1.78,22.09-4.05,5.49-1.5,11.72-3.31,18.58-5.39,10.64-3.22,22.79-7.08,35.97-11.43,52.07-17.21,103.5-36.68,114.64-43.41,1.79-1.08,2.45-1.76,2.22-2.28Z"/><path class="blackhole_svg_1" d="M244.53,106.55c-1.09-2.15-24.07,4.28-42.98,10,.04,.15,.09,.29,.14,.44,28.22-8.53,41.82-11.41,42.42-10.22,0,0,.09,.25-.96,1.02-8.04,5.88-60.12,25.88-116.09,44.6-24.14,8.07-46.29,14.99-62.37,19.47-23.31,6.5-25.18,5.5-25.31,5.23,0,0-.09-.25,.96-1.02,3.83-2.8,17.71-8.86,38.42-16.86-.02-.16-.04-.32-.06-.48-20.82,8.03-34.78,14.13-38.64,16.96-.97,.71-1.31,1.21-1.1,1.61,.25,.48,1,1.93,25.85-5,5.17-1.44,10.95-3.13,17.23-5.03,13.29-4.02,28.77-8.97,45.16-14.45,56.01-18.73,108.15-38.77,116.22-44.67,.97-.71,1.3-1.2,1.1-1.61Z"/><path class="blackhole_svg_1" d="M250.96,104.29c-1.42-2.3-28.96,5.58-49.54,11.87,.01,.04,.03,.07,.04,.11,.03,.11,.07,.21,.1,.32,32.47-9.93,48.21-13.34,49.01-12.05,.03,.05,0,.21-.3,.51-4.96,5.04-57.73,25.59-117.63,45.82-66.91,22.6-98.59,30.24-99.72,28.44-.03-.05,0-.21,.3-.52,2.69-2.73,19.55-10.11,45.48-20.02-.02-.16-.03-.32-.04-.48-26.07,9.96-43.05,17.4-45.78,20.17-.43,.43-.55,.8-.37,1.09,1.16,1.85,20.08-2.95,45.62-10.67,16.46-4.98,35.68-11.17,54.64-17.58,59.96-20.25,112.81-40.86,117.81-45.94,.42-.43,.55-.8,.37-1.09Z"/><path class="blackhole_svg_1" d="M257.71,101.86c-1.84-2.06-27.75,5.02-56.46,13.88,.07,.13,.13,.28,.18,.43,32.41-9.99,54.51-15.59,55.93-14,.02,.02,.05,.06,0,.18-1.89,4.17-55.34,25.26-119.15,47-29.53,10.06-57.32,18.91-78.25,24.91-29.85,8.56-33.44,7.83-33.83,7.4-.02-.02-.05-.06,0-.19,1.11-2.46,21.47-11.37,52.54-23.15-.01-.17-.02-.33-.03-.5-37.22,14.07-51.97,21.33-52.94,23.46-.16,.35-.02,.59,.08,.69,1.61,1.77,21.51-3.3,48.17-11.36,19.37-5.86,42.32-13.29,64.41-20.82,65-22.15,117.46-42.91,119.43-47.25,.16-.35,.02-.58-.07-.69Z"/><path class="blackhole_svg_1" d="M240.48,103.77c-10.67,2.85-24.1,6.8-39.5,11.6,.11,.12,.2,.25,.28,.4,15.33-4.78,28.71-8.7,39.34-11.55,21.6-5.77,23.74-4.86,23.89-4.45,.13,.39-.89,3.02-34.39,16.43-22.82,9.14-53.48,20.38-86.32,31.65-32.84,11.28-63.94,21.24-87.56,28.05-34.67,10-37.09,8.56-37.23,8.17-.14-.42,1-2.46,21.78-11.25,10.1-4.27,22.97-9.35,37.87-14.95,0-.02,0-.05,0-.07,0-.14,0-.28,0-.42-14.98,5.63-27.91,10.73-38.05,15.02-22.79,9.64-22.24,11.23-22.04,11.83,.23,.67,1.66,1.2,10.76-.77,6.45-1.4,15.55-3.78,27.04-7.1,4.43-1.28,9.12-2.67,14.04-4.15,21.31-6.44,46.85-14.74,73.54-23.91,32.85-11.28,63.51-22.52,86.34-31.66,11.1-4.44,19.75-8.15,25.7-11.01,8.38-4.03,9.19-5.32,8.96-6-.21-.6-.75-2.18-24.45,4.15Z"/></g><g class="blackhole_svg_4"><path class="blackhole_svg_1" d="M179.85,129.82c8.34,27.16-13.37,54.44-41.91,51.23-35.19-4.15-48.97-47.94-21.56-70.89,22.15-18.21,55.36-7.64,63.47,19.67h0Zm-.12,.04c-6.03-20.49-28.9-32.15-49.1-25.82-33.11,10.24-37.98,55.38-7.32,71.95,30.54,16.01,66.22-12.97,56.42-46.14h0Z"/></g><g><path class="blackhole_svg_1" d="M184.84,128.68c9.47,30.97-15.26,61.75-47.68,58.52-40.39-4.48-54.95-54.47-24.24-80.57,24.95-20.94,62.7-8.87,71.91,22.05h0Zm-.12,.04c-11.64-37.66-63.67-42.63-82.52-8.14-11.79,21.39-3.05,49.09,18.52,60.3,34.83,18.33,75.09-14.29,64-52.16h0Z"/><path class="blackhole_svg_1" d="M187.56,127.86c10.08,32.84-16.31,65.64-50.67,62.16-19.11-1.74-36.14-15.89-41.35-34.34-5.52-18.25,.87-39.16,15.59-51.25,26.5-22.22,66.64-9.42,76.43,23.43h0Zm-.12,.04c-7.28-24.83-34.92-39.02-59.45-31.46-18.06,5.05-32.16,21.78-33.7,40.59-3.2,33.41,28.99,59.6,61.05,49.88,24.74-7.31,39.72-34.19,32.09-59.01h0Z"/><path class="blackhole_svg_1" d="M190.27,127.04c10.67,34.76-17.3,69.48-53.67,65.81-20.23-1.83-38.26-16.81-43.78-36.34-5.85-19.32,.91-41.47,16.51-54.27,28.06-23.49,70.57-9.98,80.94,24.8h0Zm-.12,.04c-5.62-19.21-23.65-33.55-43.51-35.23-35.49-3.56-63.91,30.11-53.15,64.46,10.43,33.91,52.46,46.61,79.92,24.17,15.63-12.35,22.68-34.29,16.73-53.39h0Z"/><path class="blackhole_svg_1" d="M192.99,126.22c11.26,36.69-18.29,73.33-56.67,69.45-21.35-1.93-40.38-17.73-46.22-38.34-6.19-20.39,.95-43.78,17.43-57.28,29.61-24.77,74.5-10.53,85.45,26.17h0Zm-.12,.04c-5.94-20.29-24.97-35.46-45.94-37.23-37.64-3.66-67.41,31.71-56.14,68.1,11.08,35.87,55.34,49.25,84.43,25.54,16.51-13.06,23.93-36.23,17.65-56.41h0Z"/><path class="blackhole_svg_1" d="M195.7,125.4c11.84,38.61-19.29,77.18-59.66,73.09-22.47-2.03-42.5-18.66-48.65-40.34-6.6-21.45,1.02-46.1,18.35-60.3,31.17-26.05,78.44-11.09,89.97,27.55h0Zm-.12,.04c-6.25-21.37-26.28-37.36-48.38-39.24-39.65-3.88-70.95,33.46-59.14,71.75,11.66,37.8,58.3,51.91,88.95,26.91,17.38-13.76,25.19-38.18,18.57-59.42h0Z"/><path class="blackhole_svg_1" d="M198.42,124.58c12.46,40.53-20.29,81.04-62.66,76.75-23.58-2.15-44.64-19.58-51.09-42.35-6.96-22.52,1.07-48.41,19.26-63.32,32.71-27.32,82.41-11.64,94.49,28.93h0Zm-.12,.04c-6.54-22.46-27.61-39.26-50.81-41.25-41.64-4.09-74.57,35.2-62.13,75.4,12.21,39.73,61.28,54.56,93.47,28.3,18.24-14.47,26.46-40.13,19.48-62.45h0Z"/><path class="blackhole_svg_1" d="M201.13,123.76c13.04,42.45-21.29,84.89-65.65,80.39-24.7-2.25-46.77-20.5-53.52-44.36-7.3-23.59,1.12-50.72,20.18-66.34,34.26-28.6,86.35-12.19,99,30.3h0Zm-.12,.04c-6.85-23.54-28.92-41.16-53.25-43.25-43.64-4.29-78.15,36.92-65.13,79.04,12.78,41.66,64.24,57.21,97.98,29.67,19.12-15.17,27.72-42.08,20.39-65.46h0Z"/><path class="blackhole_svg_1" d="M203.85,122.94c13.63,44.38-22.28,88.73-68.65,84.04-25.82-2.35-48.89-21.42-55.96-46.36-7.63-24.67,1.16-53.03,21.09-69.35,35.82-29.88,90.28-12.75,103.51,31.68h0Zm-.12,.04c-7.17-24.62-30.24-43.06-55.68-45.25-45.71-4.43-81.68,38.54-68.13,82.69,13.36,43.58,67.19,59.86,102.49,31.04,20-15.88,28.97-44.02,21.31-68.48h0Z"/></g><g class="blackhole_svg_2"><path class="blackhole_svg_1" d="M184.84,128.68c9.47,30.97-15.26,61.75-47.68,58.52-40.39-4.48-54.95-54.47-24.24-80.57,24.95-20.94,62.7-8.87,71.91,22.05h0Zm-.12,.04c-11.64-37.66-63.67-42.63-82.52-8.14-11.79,21.39-3.05,49.09,18.52,60.3,34.83,18.33,75.09-14.29,64-52.16h0Z"/><path class="blackhole_svg_1" d="M187.56,127.86c10.08,32.84-16.31,65.64-50.67,62.16-19.11-1.74-36.14-15.89-41.35-34.34-5.52-18.25,.87-39.16,15.59-51.25,26.5-22.22,66.64-9.42,76.43,23.43h0Zm-.12,.04c-7.28-24.83-34.92-39.02-59.45-31.46-18.06,5.05-32.16,21.78-33.7,40.59-3.2,33.41,28.99,59.6,61.05,49.88,24.74-7.31,39.72-34.19,32.09-59.01h0Z"/><path class="blackhole_svg_1" d="M190.27,127.04c10.67,34.76-17.3,69.48-53.67,65.81-20.23-1.83-38.26-16.81-43.78-36.34-5.85-19.32,.91-41.47,16.51-54.27,28.06-23.49,70.57-9.98,80.94,24.8h0Zm-.12,.04c-5.62-19.21-23.65-33.55-43.51-35.23-35.49-3.56-63.91,30.11-53.15,64.46,10.43,33.91,52.46,46.61,79.92,24.17,15.63-12.35,22.68-34.29,16.73-53.39h0Z"/><path class="blackhole_svg_1" d="M192.99,126.22c11.26,36.69-18.29,73.33-56.67,69.45-21.35-1.93-40.38-17.73-46.22-38.34-6.19-20.39,.95-43.78,17.43-57.28,29.61-24.77,74.5-10.53,85.45,26.17h0Zm-.12,.04c-5.94-20.29-24.97-35.46-45.94-37.23-37.64-3.66-67.41,31.71-56.14,68.1,11.08,35.87,55.34,49.25,84.43,25.54,16.51-13.06,23.93-36.23,17.65-56.41h0Z"/><path class="blackhole_svg_1" d="M195.7,125.4c11.84,38.61-19.29,77.18-59.66,73.09-22.47-2.03-42.5-18.66-48.65-40.34-6.6-21.45,1.02-46.1,18.35-60.3,31.17-26.05,78.44-11.09,89.97,27.55h0Zm-.12,.04c-6.25-21.37-26.28-37.36-48.38-39.24-39.65-3.88-70.95,33.46-59.14,71.75,11.66,37.8,58.3,51.91,88.95,26.91,17.38-13.76,25.19-38.18,18.57-59.42h0Z"/><path class="blackhole_svg_1" d="M198.42,124.58c12.46,40.53-20.29,81.04-62.66,76.75-23.58-2.15-44.64-19.58-51.09-42.35-6.96-22.52,1.07-48.41,19.26-63.32,32.71-27.32,82.41-11.64,94.49,28.93h0Zm-.12,.04c-6.54-22.46-27.61-39.26-50.81-41.25-41.64-4.09-74.57,35.2-62.13,75.4,12.21,39.73,61.28,54.56,93.47,28.3,18.24-14.47,26.46-40.13,19.48-62.45h0Z"/><path class="blackhole_svg_1" d="M201.13,123.76c13.04,42.45-21.29,84.89-65.65,80.39-24.7-2.25-46.77-20.5-53.52-44.36-7.3-23.59,1.12-50.72,20.18-66.34,34.26-28.6,86.35-12.19,99,30.3h0Zm-.12,.04c-6.85-23.54-28.92-41.16-53.25-43.25-43.64-4.29-78.15,36.92-65.13,79.04,12.78,41.66,64.24,57.21,97.98,29.67,19.12-15.17,27.72-42.08,20.39-65.46h0Z"/><path class="blackhole_svg_1" d="M203.85,122.94c13.63,44.38-22.28,88.73-68.65,84.04-25.82-2.35-48.89-21.42-55.96-46.36-7.63-24.67,1.16-53.03,21.09-69.35,35.82-29.88,90.28-12.75,103.51,31.68h0Zm-.12,.04c-7.17-24.62-30.24-43.06-55.68-45.25-45.71-4.43-81.68,38.54-68.13,82.69,13.36,43.58,67.19,59.86,102.49,31.04,20-15.88,28.97-44.02,21.31-68.48h0Z"/></g></svg>